<svg id="_07" data-name="07" xmlns="http://www.w3.org/2000/svg" xmlns:xlink="http://www.w3.org/1999/xlink" viewBox="0 0 2769.46 2500"><defs><style>.cls-1,.cls-26,.cls-27,.cls-28,.cls-30,.cls-33,.cls-40{fill:none;}.cls-2{fill:#ffe3c2;}.cls-3{opacity:0.5;}.cls-4{fill:#ffc68d;}.cls-5,.cls-7{fill:#57ada3;}.cls-6{fill:#8cc3be;}.cls-7{opacity:0.38;}.cls-8{clip-path:url(#clip-path);}.cls-9{fill:#d04719;}.cls-10,.cls-45{fill:#ed952b;}.cls-11{fill:#ffd894;}.cls-12{fill:#ea792d;}.cls-13{opacity:0.52;}.cls-14{fill:#ffb957;}.cls-15{fill:#003347;}.cls-16{fill:#fff;}.cls-17{fill:#78c1d0;}.cls-18{fill:#006989;}.cls-19{fill:#cff9ff;}.cls-20{fill:#2d9d9f;}.cls-21{fill:#007572;}.cls-22{fill:#004e66;}.cls-23{fill:#b55930;}.cls-24{fill:#035958;}.cls-25{fill:#13a497;}.cls-26,.cls-27,.cls-28,.cls-30,.cls-35{stroke:#000;}.cls-26,.cls-27,.cls-28,.cls-30,.cls-33,.cls-34,.cls-40{stroke-linecap:round;}.cls-26,.cls-27,.cls-28,.cls-30,.cls-33,.cls-34,.cls-35{stroke-miterlimit:10;}.cls-26{stroke-width:2.5px;}.cls-27{stroke-width:2.64px;}.cls-28{stroke-width:2.12px;}.cls-29{fill:#56cbb8;}.cls-30{stroke-width:4.28px;}.cls-31{fill:#cc794d;}.cls-32{fill:#f17c5b;}.cls-33,.cls-34{stroke:#fff;stroke-width:3.35px;}.cls-34{fill:#f27c90;}.cls-35{stroke-width:0.84px;}.cls-36{fill:#e57200;}.cls-37{opacity:0.53;}.cls-38{opacity:0.21;}.cls-39{fill:#00243f;}.cls-40{stroke:#00243f;stroke-linejoin:round;stroke-width:32.77px;}.cls-41{opacity:0.54;}.cls-42{fill:#c56b48;}.cls-43{fill:#5e1212;}.cls-44{fill:#cc1300;}.cls-45{opacity:0.37;}.cls-46{opacity:0.62;}</style><clipPath id="clip-path" transform="translate(-952.05 -310)"><path class="cls-1" d="M3686.29,1492.21c-18.93,155.86-80.93,305.14-171,436.23-99.8,145.24-234.1,268.14-382.53,352.91-130.6,74.59-273.74,124.11-421.64,150.53a1478.7,1478.7,0,0,1-169.65,20.2,1580.77,1580.77,0,0,1-384.38-24C1872.54,2375.21,1549,2241.77,1343.62,2032c-122.77-125.46-206.14-303.53-245-484.7-17.82-82.93-26.32-166.51-25-246,3.92-240.72,122.13-503.46,349.9-605.43,246-110.14,526.64-140,790.8-87.76,164.36,32.5,303.15,119.17,462.09,163.69,133.91,37.51,262.4,10,397.12,9.82,130.55-.19,261.3,40.67,367.27,117.2C3627.4,1033.59,3713.7,1266.62,3686.29,1492.21Z"/></clipPath></defs><title>TDV_M16s7_07</title><path class="cls-2" d="M3686.29,1492.21c-18.93,155.86-80.93,305.14-171,436.23-99.8,145.24-234.1,268.14-382.53,352.91-130.6,74.59-273.74,124.11-421.64,150.53a1478.7,1478.7,0,0,1-169.65,20.2,1580.77,1580.77,0,0,1-384.38-24C1872.54,2375.21,1549,2241.77,1343.62,2032c-122.77-125.46-206.14-303.53-245-484.7-17.82-82.93-26.32-166.51-25-246,3.92-240.72,122.13-503.46,349.9-605.43,246-110.14,526.64-140,790.8-87.76,164.36,32.5,303.15,119.17,462.09,163.69,133.91,37.51,262.4,10,397.12,9.82,130.55-.19,261.3,40.67,367.27,117.2C3627.4,1033.59,3713.7,1266.62,3686.29,1492.21Z" transform="translate(-952.05 -310)"/><path class="cls-2" d="M952.28,1307.8a1250.92,1250.92,0,0,0,15.35,218.6,1319.93,1319.93,0,0,0,50.29,208.6c22.95,69.57,53.14,137.19,88,201.61a1279.78,1279.78,0,0,0,120.46,183.09q33.47,42.51,70.87,81.56,18.48,19.18,37.79,37.55c6.57,6.25,13.32,12.15,20.36,17.88q5,4,10,8c1,.82,9.49,7.57,6.49,5.1-2.13-1.76.52.44,1,.85l3.15,2.46c4.46,3.47,8.92,6.94,13.42,10.35,3.53,2.68,7.83,4.26,11.84,6.11,6.33,2.93,14.38,3.06,19.5-2.51,4.66-5.08,6.55-13.41,2.52-19.51-2.83-4.26-5.45-8.81-8.82-12.67-3.12-3.57-6.73-6.79-10-10.19q-9.43-9.67-18.64-19.57c-11.93-12.81-24.44-25-36.52-37.72-24.5-25.71-47.91-52.52-70.43-80q-8.58-10.46-16.92-21.09l-3.92-5c-2.58-3.32.58.74.91,1.18-.63-.85-1.29-1.69-1.94-2.53q-4.35-5.67-8.64-11.4c-10.48-14-20.77-28.18-30.72-42.57q-30.31-43.86-56.9-90.13t-49.25-94.53q-5.74-12.25-11.24-24.61-2.58-5.82-5.11-11.66-1.26-2.92-2.51-5.85c-.41-1-.9-1.94-1.25-2.93,2.18,6.22.44,1-.07-.19q-10.12-24.24-19.27-48.87c-24.84-67-45.68-135.14-59.34-205.35q-5.07-26.13-9-52.46-.95-6.29-1.83-12.58c-.19-1.38-1.1-7.72-.34-2.42-.34-2.36-.63-4.73-.93-7.1q-1.71-13.42-3.13-26.88-5.56-53-6.48-106.39-.23-13.14-.15-26.27c.05-10.07-8.89-19.72-19.25-19.25-10.6.47-19,8.46-19.25,19.25Z" transform="translate(-952.05 -310)"/><path class="cls-2" d="M998.57,970.86c-5,18.19-9.85,36.45-13.68,54.92-4.06,19.54-6.79,39.47-9.28,59.26q-3.55,28.23-5.83,56.59c-.73,9.11-1.58,18.25-1.79,27.39-.1,4.57-.13,9.14-.16,13.7,0,3.71-.06,7.61,1,11.19,1.3,4.41,4,7.52,6.93,10.84,6.2,7,18.17,6.33,24.46,0s7.94-12.45,8.46-21c.3-4.89.65-9.78,1-14.68.61-9.11.78-18.26,1.26-27.39q1.46-27.84,4.14-55.61c1.78-18.48,4.06-36.89,6-55.35,2.06-19.68,3.58-36.12,6.18-55.93.93-7.09-6.27-13.57-12.65-14.33a14.6,14.6,0,0,0-16,10.45Z" transform="translate(-952.05 -310)"/><path class="cls-2" d="M3090.78,2424.16c8.48-.87,16-1.81,21.71-3,6.87-1.44,13.84-2.74,20.58-4.7q18.63-5.43,36.87-12.11c13.77-5,27.34-10.62,40.75-16.53,3-1.31,5.91-2.73,8.9-4-4.83,2,.21,0,1-.31,2.2-.89,4.4-1.76,6.56-2.75,6.4-2.9,12.61-6.27,18.8-9.58,48.25-25.77,93.12-57.52,134.54-93.19,87-74.91,156.58-167.18,216.06-264.86,9-14.87,19.54-29.9,25.73-46.2.62-1.64,1.21-3.28,1.82-4.91.34-1,2.67-8.19.89-3,1.31-3.82,3.91-7.59,5.75-11.2q5.72-11.23,11.33-22.51,10.83-21.78,21.09-43.83c3.91-8.37,7.34-17,10.82-25.5,3.18-7.78,6.15-15.08,7.72-23.36,1-5.37-.67-10.88-5.6-13.76a12.37,12.37,0,0,0-14.76,1.9c-10.58,11.07-18.57,24.86-26.58,37.88-7.51,12.24-14.74,24.66-22.11,37s-14.84,24.62-22.43,36.83c-.74,1.2-1.75,3.71-2.85,4.58,2.79-2.19,1.12-1.44.16-.31-2.27,2.64-4.48,5.35-6.67,8-5.86,7.24-10.2,15.41-15,23.39q-22,37-45.87,72.85c-15.86,23.72-32,47.68-50,69.87,4.15-5.12.26-.34-.48.61l-3.3,4.23c-2.2,2.83-4.39,5.66-6.61,8.48q-6.64,8.45-13.46,16.76-13.38,16.32-27.43,32.08-26.1,29.25-54.68,56.15c-19.26,18.09-39.41,35.14-60.24,51.39-1.1.85-4.07,3.42.15-.11-1.25,1-2.6,2-3.9,3q-3.91,3-7.85,5.87-8.54,6.28-17.25,12.33-16,11.13-32.7,21.37c-24.79,15.22-50.32,29.58-76.8,41.66q-4.41,2-8.84,3.94c-1.48.65-3,1.28-4.45,1.92,4.15-1.79-2.21.92-2.93,1.21q-10.52,4.32-21.2,8.22c-3,1.11-6.15,2.12-9.19,3.26-2.44.92-4.81,2-7.21,3.05-1.84.79-1.95.83-.32.14-1,.39-2,.77-3.06,1.11-1.53.55-3.08,1-4.61,1.6a31.31,31.31,0,0,0-5.51,2.15c1.44-.61,1.24-.54-.59.19-4.94,1.77-6.2,2.51-10.62,4.3-6.67,2.7-11.5,8.2-10.35,15.85,1,6.48,6.94,13.25,14.18,12.52Z" transform="translate(-952.05 -310)"/><path class="cls-2" d="M3712,1753.1c2.19-13.45,4.58-26.89,6.56-40.37,1-7.1,1.6-14.28,2.32-21.42.45-4.55,1.32-8.79-.44-13.19a33.11,33.11,0,0,0-5.18-9c-2.51-3-8.26-3.69-11.48-1.48a30.47,30.47,0,0,0-6.29,5.92c-3.33,4-3.94,8-4.8,13-1.28,7.39-2.74,14.77-3.65,22.21-1.66,13.53-3,27.1-4.52,40.65-.75,6.82,5.91,13,12.13,13.74s14.22-3.07,15.35-10Z" transform="translate(-952.05 -310)"/><path class="cls-2" d="M3247.53,728.69c8.91,2.19,19.5,4.5,27.34,7.18,5.41,1.84,10.72,3.56,16.24,5.13q3.46,1,6.92,2c1,.3,2.07.57,3.07.92-3.09-1.07,3.35,1.58,4.44,2,19.43,6.8,39.1,12.69,58.25,20.34,2.23.88,4.44,1.8,6.66,2.71-3.24-1.32-.63-.27,0,0l4.37,1.9q6.89,3,13.66,6.3c9,4.34,17.89,9,26.6,13.87q13.36,7.5,26.08,16.09,5.85,4,11.52,8.16c1.26.93,5.57,4.24,2.19,1.61q3.7,2.88,7.32,5.86c7.66,6.33,14.57,13.55,22.26,19.8q5.51,4.5,10.81,9.24c2.15,1.93,4.22,3.92,6.51,5.69a18.69,18.69,0,0,0,17.19,2.88c10.64-3.16,15.27-17,9.55-26.36-3.26-5.34-7.63-10.2-11.55-15.06-6.33-7.84-13.6-14.36-21.39-20.74-32.89-27-69.73-47.26-109.44-62.33a444,444,0,0,0-65.89-19.2c-6.56-1.39-12.08-1.8-16.73-2.61-5.54-1-11.1-1.87-16.67-2.66-12-1.7-24.46-2.22-36.56-3.08-11.73-.83-14,17.61-2.76,20.39Z" transform="translate(-952.05 -310)"/><path class="cls-2" d="M2498.9,413.31c-16.62,39-19.07,85.42-3.26,132.33,30.42,90.26,119.67,151,208.79,176.07,68.81,19.37,145.28,15.24,208.55-18,52.76-27.75,95.81-77.12,112.27-134.84,17.67-62-21.89-124.77-70.8-160.6-84.14-61.63-202.72-105.21-307.81-97.32C2576.13,316.22,2522.83,357.14,2498.9,413.31Z" transform="translate(-952.05 -310)"/><path class="cls-2" d="M1675.26,2627c-37.53,2.59-93.31,12.59-104.3,45.74-5.89,17.79,4.84,36.72,20.51,50.39,25.59,22.34,62.84,34,99.45,42.86,201,48.57,417.7,47.1,625.86,40.95,227.2-6.71,458.61-12.54,683.71-38.71,28.32-3.29,57-7.11,82.75-17,54.23-20.79,78.69-69.14,26.46-103.11-100.39-65.3-269.87-60.13-390.58-49.06-138,12.66-276.21,40.65-416,31.91-118.11-7.39-236.6-11.57-355.11-11q-88.77.45-177.43,4.62C1740.44,2626.07,1707.25,2624.79,1675.26,2627Z" transform="translate(-952.05 -310)"/><g class="cls-3"><polygon class="cls-4" points="834.46 759.21 529.18 1279.86 1129.14 1232.35 1129.14 742.79 834.46 759.21"/></g><g class="cls-3"><path class="cls-4" d="M3515.26,1928.44c-99.8,145.24-234.1,268.14-382.53,352.91-130.6,74.59-273.74,124.11-421.64,150.53l219.3-510.59Z" transform="translate(-952.05 -310)"/></g><path class="cls-5" d="M3431.5,1749.34a17.17,17.17,0,0,1,5.51-3.13,12.51,12.51,0,0,1,10,1.78,23.82,23.82,0,0,1,7.09,7.65c2.51,4,4.39,9,2.61,13.4a15.37,15.37,0,0,1-3.76,5,22.43,22.43,0,0,1-7.2,5c-4.61,1.83-9.95,1.19-14.44-.92s-11.63-6.83-11.92-12.42C3419.07,1759,3426.86,1752.92,3431.5,1749.34Z" transform="translate(-952.05 -310)"/><path class="cls-5" d="M3370.46,1752.23c2.18,2.56,5.94,3.89,9.08,2.69a10,10,0,0,0,4.14-3.28c3.18-4,4.46-9.63,2.65-14.41-2-5.28-11.16-11.29-15.77-5.55C3366.81,1736.35,3366.7,1747.83,3370.46,1752.23Z" transform="translate(-952.05 -310)"/><path class="cls-6" d="M3429.8,1791.63a72.71,72.71,0,0,1-5.9,14.24c-1.27,2.35-2.65,4.63-4.13,6.86a152.62,152.62,0,0,1-18.71,22.38c-.4.41-.8.82-1.22,1.23-1.27,1.29-2.57,2.58-3.86,3.85-2.83,2.79-5.7,5.56-8.74,8.11-1.26,1-2.55,2.07-3.88,3l-.17.11c-.89.56-2.27.86-2.64,0,0,0,0-.09-.05-.14l-4.73-2-19.31-8.15c-.45-1.6-.84-3.2-1.2-4.81-.1-.41-.18-.82-.27-1.23a125.21,125.21,0,0,1-2.41-22.38c-.1-3.93-.07-7.86.05-11.78,0-.14,0-.27,0-.41.49-15.27,2.4-31,10.07-44.24,6.38-11,17.6-19.88,29.94-21.6a30.33,30.33,0,0,1,7.56-.13,32,32,0,0,1,15.46,6.16,40.79,40.79,0,0,1,15.1,22.31C3433.21,1772.41,3432.54,1782.28,3429.8,1791.63Z" transform="translate(-952.05 -310)"/><path class="cls-7" d="M3423.9,1805.87c-5.91,10.91-14.12,20.35-22.84,29.23h14.78a9.24,9.24,0,0,1,6.91,3.1c-.48.79-1,1.56-1.54,2.31a57.1,57.1,0,0,1-9.68,9.6c-4.71,4-9.57,7.86-15.22,10.28s-12.26,3.2-17.91.81a15.1,15.1,0,0,1-9-10.73c-1-5.49,4-10.18,6.56-14.74l.34-.63c6-10.8,10.58-22.3,15.15-33.75q7.83-19.56,15.63-39.11c2.8-7,5.63-14.11,6.57-21.6a4.82,4.82,0,0,1,2,.09,40.72,40.72,0,0,1,15.09,22.31C3434.51,1777.36,3431,1792.85,3423.9,1805.87Z" transform="translate(-952.05 -310)"/><path class="cls-5" d="M3443.33,1819.6v16.7q-5.13,1.73-11.14,3.33-4.07,1.09-8.55,2.11a357.67,357.67,0,0,1-36.4,6.56q-6.22.72-11.47,1c-25.08,1.33-34.27-4.7-37-12.49-2.12-6-.39-13.08.84-18.6.45-2.06.92-3.87,1.39-5.48h11.59c-.1-3.93-.07-7.86.05-11.78,12.55,1.24,45.93,3,77.17-9.32a72.71,72.71,0,0,1-5.9,14.24c-1.27,2.35-2.65,4.63-4.13,6.86h16.68A6.87,6.87,0,0,1,3443.33,1819.6Z" transform="translate(-952.05 -310)"/><path class="cls-7" d="M3392.65,1734.7c-1.17,6.47-6.1,14.15-7.71,18.73-7.52,21.38-11,43.86-15.1,66.07-1,5.21-1.94,10.42-3,15.6-1.49,7.23-3.15,14.42-5.13,21.53-.47,1.72-1.12,3.62-2.7,4.43s-3.91.08-5.19-1.36a13,13,0,0,1-2.41-5.2c-1.86-6.4-3.58-12.87-5-19.4H3355c-2.35-11.3-2.72-23-2.35-34.56.5-15.27,2.4-31,10.07-44.24C3369.09,1745.29,3380.31,1736.42,3392.65,1734.7Z" transform="translate(-952.05 -310)"/><g class="cls-8"><rect class="cls-9" x="1569.73" y="1303.34" width="46.24" height="910.05"/><path class="cls-10" d="M1618.42,1702.31v677.91s-370-91.43-437.49-140.27S1014,1702.31,1014,1702.31Z" transform="translate(-952.05 -310)"/><polygon class="cls-11" points="47.78 1215.88 1592.05 1215.88 1561.82 1306.27 826.27 1335.94 685.62 1366.27 105.56 1366.27 47.78 1215.88"/><rect class="cls-10" x="826.27" y="1300.86" width="733.92" height="35.08"/><polygon class="cls-12" points="666.37 1392.31 666.37 2070.22 826.27 2049.79 826.27 1323.88 666.37 1392.31"/><g class="cls-13"><polygon class="cls-9" points="666.25 1589.11 826.27 1498.01 826.27 1408.27 666.25 1499.37 666.25 1589.11"/></g><g class="cls-13"><polygon class="cls-9" points="666.25 1767.31 826.27 1676.22 826.27 1586.47 666.25 1677.57 666.25 1767.31"/></g><g class="cls-13"><polygon class="cls-9" points="666.25 1945.52 826.27 1854.42 826.27 1764.67 666.25 1855.77 666.25 1945.52"/></g><g class="cls-13"><polygon class="cls-9" points="666.25 2123.72 826.27 2032.62 826.27 1942.88 666.25 2033.97 666.25 2123.72"/></g><g class="cls-13"><rect class="cls-9" x="41.03" y="1499.37" width="625.22" height="89.74"/></g><g class="cls-13"><rect class="cls-9" x="41.03" y="1677.29" width="625.22" height="89.74"/></g><g class="cls-13"><rect class="cls-9" x="41.03" y="1855.21" width="625.22" height="89.74"/></g><rect class="cls-14" x="105.56" y="1366.27" width="580.06" height="49.75"/><polygon class="cls-10" points="685.62 1366.27 826.27 1300.86 826.27 1335.94 685.62 1416.02 685.62 1366.27"/><path class="cls-9" d="M1708.34,1731.81a6.62,6.62,0,0,0,3.31-.74,8.85,8.85,0,0,0,5.28-7.86l-.31-2.28a8.51,8.51,0,0,0-2.21-3.79l-1.74-1.35a8.45,8.45,0,0,0-4.33-1.17,8.32,8.32,0,0,0-7.86,5.28,6.49,6.49,0,0,0-.74,3.31l.31,2.29a8.57,8.57,0,0,0,2.21,3.79l1.74,1.34a8.6,8.6,0,0,0,4.34,1.18Z" transform="translate(-952.05 -310)"/><path class="cls-9" d="M1707.38,1884.84l-.51,0h-.22a8.41,8.41,0,0,0-7.34,4.15,8.37,8.37,0,0,0,0,8.4,8.4,8.4,0,0,0,3,3,8.3,8.3,0,0,0,4.35,1.16h.22l.51,0a6.31,6.31,0,0,0,3.21-.72,7.49,7.49,0,0,0,4.39-4.4,6.3,6.3,0,0,0,.72-3.2l-.3-2.21a8.22,8.22,0,0,0-2.14-3.67l-1.68-1.3a8.18,8.18,0,0,0-4.2-1.14Z" transform="translate(-952.05 -310)"/><path class="cls-9" d="M1714.5,2241.06l-.36-.31a8.76,8.76,0,0,0-14.87,6.15l0,.48c-.3,6.43,6.81,10.51,12.38,8.17a8.77,8.77,0,0,0,5.17-5.79c.8-2.9.06-6.65-2.3-8.7Z" transform="translate(-952.05 -310)"/><path class="cls-9" d="M1612.3,1732c-.5,9.91.87,20,.91,29.93l.12,29.93c.08,19.95.73,39.89.72,59.85q0,59.85,0,119.7-.06,119.21-.17,238.42l0,66.83c0,11.31-.07,22.61,0,33.92s1.14,22.63,1.52,33.91a1,1,0,0,0,2,0c.68-20,1.52-39.83,1.51-59.85l0-59.85-.08-119.71q-.09-119.2-.13-238.41c0-22.29.41-44.55.69-66.83.14-11.31.09-22.62.14-33.92,0-5.31-.1-10.65.06-16,.19-6.09,1.17-11.85.86-18a4,4,0,0,0-8,0Z" transform="translate(-952.05 -310)"/><path class="cls-9" d="M1093.61,1728.7c16.86,1.22,34,.71,50.85,1s33.9.55,50.85.63q50.87.24,101.71.42c67.47.27,134.94.1,202.41.1,38.14,0,76.6,1.1,114.67-1.19a1.84,1.84,0,0,0,0-3.68c-33.78-2-67.87-1.19-101.7-1.19H1410.69q-101.2,0-202.41.46c-19,.08-37.9.22-56.84.56-19.21.34-38.67-.25-57.83,1.13a.88.88,0,0,0,0,1.75Z" transform="translate(-952.05 -310)"/><path class="cls-9" d="M1615,1727.74c6.69-.4,13.39.51,20,0,1.67-.14,1.7-2.71,0-2.63-6.73.34-13.3,2.11-20,2.59a0,0,0,1,0,0,.06Z" transform="translate(-952.05 -310)"/><rect class="cls-15" x="2070.15" y="1638.51" width="43.03" height="500.01"/><path class="cls-9" d="M2904.31,1886.31H3659.7a0,0,0,0,1,0,0v33a57.84,57.84,0,0,1-57.84,57.84H2904.31a0,0,0,0,1,0,0v-90.8A0,0,0,0,1,2904.31,1886.31Z" transform="translate(5611.96 3553.42) rotate(180)"/></g><path class="cls-16" d="M3132.42,939.86c28.81,25.2,52.2,56,66,91.92,13.66,35.57,16.93,74.28,8.39,111.48-8.45,36.82-27.83,71-56.86,95.43a163.6,163.6,0,0,1-101.29,37.88c-39.59.64-76.37-15.54-107-39.87s-59.91-56-71.89-94.2c-24.09-76.83,20.26-162.21,91-196.25A160.76,160.76,0,0,1,3020,930.88a168.48,168.48,0,0,1,31.83,1c4.64.59,9.25,1.46,13.81,2.49,2.38.54,6.71,1.36,7.58,1.76,7.39,3.39,14.37,8.74,21.3,12.95,9.12,5.55,18.2,11.07,27.82,15.7,1.21.58,2.41,1.26,3.65,1.76,1,.41,2.1,1.09,3.27.88-5.52,1-3.34-1.32-2.56-.6a2.39,2.39,0,0,0,.43.27c7,4.32,13.33-6.65,6.4-11-1.73-1.07,3.77,3.61-.08-.07-1.25-1.19-2.81-2.19-4.18-3.26-4.41-3.45-9-6.69-13.6-9.81-9.6-6.45-19.53-12.46-29.29-18.67-12.07-7.67-27.39-9.49-41.4-10.82a179.52,179.52,0,0,0-66.45,6.42c-83.28,24.14-143.32,110.35-133.32,197.25,5.19,45.06,29.53,82.87,61.71,113.81,31.2,30,69.7,55.33,113.24,61.81,40.08,6,81.72-2.56,116.58-23.19,35.87-21.25,62.44-54.66,77.47-93.33,30.39-78.24,6.36-167.5-53-225.23a200.52,200.52,0,0,0-22.73-19c-4.59-3.31-10.33,4.13-6.06,7.86Z" transform="translate(-952.05 -310)"/><rect class="cls-15" x="780.01" y="2080.47" width="289.77" height="368.93" rx="29.76"/><polygon class="cls-15" points="1217.49 1231.28 1062.54 1231.28 1071.41 1164.62 1209.89 1164.62 1217.49 1231.28"/><path class="cls-17" d="M1786.51,1418.78V1460a15.24,15.24,0,0,0,15.2,15.19h580.72a15.24,15.24,0,0,0,15.19-15.19v-41.17Z" transform="translate(-952.05 -310)"/><path class="cls-18" d="M2397.62,1069.21a15.24,15.24,0,0,0-15.19-15.19H1801.71a15.24,15.24,0,0,0-15.2,15.19v349.57h611.11Z" transform="translate(-952.05 -310)"/><rect class="cls-19" x="855.99" y="764.28" width="568.05" height="324.24"/><polygon class="cls-17" points="1062.54 1231.28 1217.49 1231.28 1244.74 1237.72 1035.29 1237.88 1062.54 1231.28"/><polygon class="cls-15" points="1243.31 1241.3 1036.71 1241.3 1035.34 1237.88 1244.74 1237.72 1243.31 1241.3"/><path class="cls-16" d="M2102.93,1448.76a10.87,10.87,0,1,1-10.87-10.88A10.87,10.87,0,0,1,2102.93,1448.76Z" transform="translate(-952.05 -310)"/><path class="cls-16" d="M1859.66,1285.32c28-26.08,56.37-51.81,84.36-77.92l41.62-38.82c14-13.08,29.08-25.72,41.59-40.26,3-3.47-1.06-10-5.28-6.84-15.15,11.38-28.59,25.23-42.4,38.19l-42.2,39.64c-28.14,26.43-55.92,53.23-84,79.68-4.2,4,2.12,10.25,6.33,6.33Z" transform="translate(-952.05 -310)"/><path class="cls-16" d="M1882.93,1345c23.37-16.72,46.26-34.06,68.32-52.48,22.31-18.62,44.71-37.52,64-59.28a2,2,0,0,0-2.83-2.83c-22.06,18.06-42.65,37.83-64.4,56.26-22,18.66-44.45,36.89-67.5,54.26-2.37,1.79-.11,5.85,2.38,4.07Z" transform="translate(-952.05 -310)"/><path class="cls-16" d="M1998.88,1317.43c53.62-48.17,108.84-94.67,164.76-140.18q11.51-9.36,23.09-18.62c7.89-6.31,17.43-12.66,23.78-20.56a3.28,3.28,0,0,0-4-5.12c-7.54,3.55-14.58,9.83-21.09,15q-10.84,8.64-21.59,17.41-21.14,17.2-42,34.8c-27.45,23.3-54.36,47.25-81.06,71.4-15.38,13.93-30.23,28.29-45.25,42.58-2.18,2.06,1.06,5.25,3.27,3.27Z" transform="translate(-952.05 -310)"/><path class="cls-16" d="M2088.76,1319.66q23-20.88,46.89-40.83c7.83-6.55,15.75-13,23.69-19.41,8.17-6.61,16.65-12.81,24-20.36a1.41,1.41,0,0,0-1.71-2.21c-8.75,5.07-16.34,11.59-24.17,18-8.14,6.64-16.15,13.45-24.11,20.31q-23.9,20.59-46.83,42.25c-1.52,1.42.74,3.66,2.27,2.27Z" transform="translate(-952.05 -310)"/><path class="cls-16" d="M2132.29,1363.21c27.73-26.63,55.3-53.37,82.5-80.54l40.79-40.74c13.61-13.6,27.47-26.91,40.08-41.46a3.38,3.38,0,0,0-4.77-4.77c-14.46,12.7-27.68,26.65-41.18,40.35l-40.47,41.06c-27,27.39-53.56,55.14-80,83.05a2.16,2.16,0,0,0,3.06,3Z" transform="translate(-952.05 -310)"/><path class="cls-16" d="M2272.43,1303.79q11.47-11.13,23-22.26c7.13-7,15.37-13.76,21.35-21.72,1.12-1.48-1.09-3.68-2.57-2.58-8,6-14.82,14.18-21.79,21.29q-11.19,11.42-22.33,22.89a1.69,1.69,0,0,0,2.39,2.38Z" transform="translate(-952.05 -310)"/><polygon class="cls-20" points="543.19 1239.04 331.4 1296.09 225.82 1026.11 457.8 1020.68 543.19 1239.04"/><polygon class="cls-15" points="216.72 1039.8 225.82 1026.11 331.4 1296.09 316.94 1296.09 216.72 1039.8"/><polygon class="cls-15" points="316.94 1296.09 566.9 1296.09 566.9 1310.59 323.52 1310.59 316.94 1296.09"/><polygon class="cls-21" points="566.9 1296.09 708.86 1239.04 543.19 1239.04 331.4 1296.09 566.9 1296.09"/><polygon class="cls-22" points="708.86 1239.04 708.86 1251.38 566.9 1310.59 566.9 1296.09 708.86 1239.04"/><path class="cls-19" d="M1481.32,1541.43l-2.83.76a4.84,4.84,0,0,1-.54.14l-.07,0-189.59,51.07-96.22-246.07,205.93-4.81,5.5-.12,77.73,198.78Z" transform="translate(-952.05 -310)"/><path class="cls-15" d="M1481.23,1541.2a25.9,25.9,0,0,1-2.74,1,4.84,4.84,0,0,1-.54.14l-.07,0L1398,1342.54l5.5-.12Z" transform="translate(-952.05 -310)"/><polygon class="cls-17" points="553.9 1288.16 656.4 1246.97 536.78 1246.97 383.86 1288.16 553.9 1288.16"/><path class="cls-16" d="M1280.19,1364.8c-3.37,5.68-5,12.59-7,18.85q-3.42,10.42-7.16,20.74c-2.38,6.58-4.63,13.19-7,19.75-2.48,6.73-6,13.56-7.16,20.65-.73,4.64,4.72,7.07,7.53,3.17,4.09-5.64,6.21-12.88,8.75-19.33,2.69-6.81,5.38-13.61,7.72-20.55q3.36-9.93,6.43-20c2.1-6.86,4.85-14.17,5.07-21.4.12-3.84-5.21-5.1-7.09-1.92Z" transform="translate(-952.05 -310)"/><path class="cls-16" d="M1335.75,1364.52q-12.43,31.47-24,63.25-5.7,15.64-11.29,31.34c-3.81,10.67-8.06,21.51-10.53,32.59-.37,1.69,2.11,3,2.94,1.24,4.75-9.8,8.12-20.4,11.76-30.65q5.73-16.15,11.58-32.28,11.7-32.22,23.41-64.43c.89-2.44-2.93-3.41-3.86-1.06Z" transform="translate(-952.05 -310)"/><path class="cls-16" d="M1354.38,1413.17c-2.49,12-6.49,23.77-8.61,35.8a1.93,1.93,0,0,0,3.71,1c4.55-11.19,6.55-23.91,8.84-35.74.5-2.56-3.4-3.66-3.94-1.08Z" transform="translate(-952.05 -310)"/><path class="cls-16" d="M1367.81,1369.14a9.16,9.16,0,0,0-.68,5.29,19.72,19.72,0,0,0,1.16,5,1.33,1.33,0,0,0,2.3,0,19.72,19.72,0,0,0,1.16-5,9.16,9.16,0,0,0-.68-5.29,1.9,1.9,0,0,0-3.26,0Z" transform="translate(-952.05 -310)"/><path class="cls-16" d="M1381.82,1391.42c-6.42,24-12.48,48.07-18.64,72.13-3,11.71-6,23.43-9,35.14q-2.33,9-4.69,18c-1.49,5.72-4.22,12.18-3.88,18.13a3.29,3.29,0,0,0,6.07,1.65c3.06-4.78,3.84-11.27,5.24-16.72q2.32-9,4.62-18,4.59-18,9-36.16c5.83-24.18,11.4-48.37,16.28-72.77.65-3.24-4.12-4.63-5-1.38Z" transform="translate(-952.05 -310)"/><path class="cls-16" d="M1398.75,1465.48l-1.44,7.07c-.42,2.08-1.08,4.07-.72,6.19.26,1.58,2.41,1.53,3.15.41,1.14-1.7,1.33-4,1.77-5.94l1.48-6.56c.62-2.76-3.68-3.93-4.24-1.17Z" transform="translate(-952.05 -310)"/><path class="cls-16" d="M3084.77,1848.74c-1.26,22.46,2.4,47.49,19.55,62,16.72,14.19,43.36,13.64,60.95.53s25.82-36.73,22.63-58.43" transform="translate(-952.05 -310)"/><path class="cls-23" d="M3084.18,1848.74c-1.77,25.9,2.89,57.9,29.35,70,24.84,11.4,54.29.42,67.95-22.55,7.27-12.23,12.05-29.71,7.94-43.76a1.59,1.59,0,0,0-3.1.41c-.12,8.23.33,16.07-1.62,24.19a60.58,60.58,0,0,1-9.21,20.69,50.16,50.16,0,0,1-41.73,21.5c-16.73-.19-30.93-8.79-39.3-23.17-8.14-14-9.64-31.52-9.09-47.36,0-.77-1.14-.76-1.19,0Z" transform="translate(-952.05 -310)"/><path class="cls-24" d="M3128.54,1729.35s-68.36-83.94-71.75-137.3,74.85-38,83.07-2.27S3140.74,1696.87,3128.54,1729.35Z" transform="translate(-952.05 -310)"/><path class="cls-25" d="M3115.57,1749.79s-.42-62.61-20.52-98.3-67-25.16-71.91-9S3030.1,1695.62,3115.57,1749.79Z" transform="translate(-952.05 -310)"/><path class="cls-26" d="M3110.65,1600.55s16.93,51,18.72,211.9c0,0,10.63-54.35-75.12-161.61" transform="translate(-952.05 -310)"/><path class="cls-25" d="M3180.28,1784.11s33.54-104.07,78.29-89.07S3219.27,1772,3180.28,1784.11Z" transform="translate(-952.05 -310)"/><path class="cls-27" d="M3165.85,1817.71s10-45,73.22-97.55" transform="translate(-952.05 -310)"/><path class="cls-24" d="M3111.24,1799.62s-38.58-78.72-72.36-61.67S3078.91,1794.47,3111.24,1799.62Z" transform="translate(-952.05 -310)"/><path class="cls-28" d="M3126.55,1824.62s-13.1-34.54-69.31-69" transform="translate(-952.05 -310)"/><path class="cls-29" d="M3176.09,1712.29s.86-69.77,30-131.7c22.19-47.21,66.19-106.95,103.32-90.51,57.24,25.36,7.64,74.61-14.54,100C3271,1617.23,3233.82,1645.88,3176.09,1712.29Z" transform="translate(-952.05 -310)"/><path class="cls-25" d="M3168.47,1632.13s-36.82-108.32-23.33-178.72,101.18-72.61,119.4-46.83S3284.34,1501.38,3168.47,1632.13Z" transform="translate(-952.05 -310)"/><path class="cls-30" d="M3211.1,1446.25c-50.16,195-70.45,293.6-58.13,398-5.13-27.83,13.83-189.67,110.74-300" transform="translate(-952.05 -310)"/><path class="cls-31" d="M3204,1819.4v27.29a7.52,7.52,0,0,1-7.52,7.52H3080.41a7.52,7.52,0,0,1-7.52-7.52V1819.4a7.52,7.52,0,0,1,7.52-7.52h116.07A7.51,7.51,0,0,1,3204,1819.4Z" transform="translate(-952.05 -310)"/><path class="cls-23" d="M3105.56,1861c11.68,1,23.37,1.91,35.09,2.41q8.28.36,16.58.56c5.54.13,11.38.74,16.86-.17a1,1,0,0,0,0-1.93c-5.18-.86-10.65-.38-15.88-.43q-8.79-.09-17.56-.34c-11.7-.34-23.4-.79-35.09-1.48-.88,0-.86,1.3,0,1.38Z" transform="translate(-952.05 -310)"/><path class="cls-25" d="M3132.47,1556.86c.05-9.33-2.88-17.61-7.27-25.75-2.8-5.17-8-15.55-15.23-15-7.44.57-6,11.73-4.23,16.42a51.43,51.43,0,0,0,6.49,11.6c2.68,3.81,5.45,8.15,9,11.16,1.61,1.35,4.15-.34,3-2.34-2.93-5.18-7.28-9.6-10.49-14.65a35.54,35.54,0,0,1-4.17-8.56c-1-3.37-1.58-12.09,4-7.6,4.28,3.41,7.13,9.41,9.65,14.15,3.37,6.36,6.18,13.36,6.9,20.57a1.13,1.13,0,0,0,2.26,0Z" transform="translate(-952.05 -310)"/><path class="cls-29" d="M3277.12,1483.05c4.19-6.12,8.39-12.22,13.86-17.29a45.66,45.66,0,0,1,8.66-6.49c1.92-1.07,8.68-5,10.79-3.18l1.2,4.62a15.8,15.8,0,0,1-2.41,3.23,25.91,25.91,0,0,1-4.16,3.6,41.8,41.8,0,0,1-9,4.61c-6.32,2.41-12.92,3.59-19,6.68-1.46.75-.4,2.81,1.06,2.52,9.8-2,20.62-4.5,29-10.3,4.49-3.12,13.41-11.66,7.25-17.24-5.4-4.89-15.4,1.26-19.86,4.62-8.17,6.15-13.65,15.13-19,23.7-.63,1,.92,1.88,1.58.92Z" transform="translate(-952.05 -310)"/><path class="cls-29" d="M3221.73,1694.41c-2.89-5.54,3-13.37,6.09-17.76,2-2.77,11.56-13.06,14.08-7.83,2,4.15-7.48,11.74-10.44,14.65-4.26,4.18-9.18,8.13-12.92,12.77-1,1.23.28,3.38,1.83,2.37,4.12-2.7,7.69-6.46,11.26-9.82a105.72,105.72,0,0,0,10.52-11c3.24-4,8.94-13.31-.29-14.33-7.06-.79-13.47,6.17-17,11.43-3.71,5.51-9.14,14.1-5.12,20.64a1.15,1.15,0,0,0,2-1.16Z" transform="translate(-952.05 -310)"/><path class="cls-29" d="M3196.2,1798.22a23.1,23.1,0,0,1,6.84-9.64c1.24-1,12.49-8.15,11.58-2-.48,3.19-6.7,6.56-9.16,7.92-3.1,1.71-6.64,2.77-9.59,4.72a1.4,1.4,0,0,0,1.07,2.54c6-1.08,12.68-4.9,17.07-9.09,2.69-2.57,6.91-7.82,3.09-11.31-3.23-2.95-9.92.71-12.82,2.64a25,25,0,0,0-10,13.69c-.39,1.26,1.5,1.74,1.95.54Z" transform="translate(-952.05 -310)"/><path class="cls-16" d="M3337.15,1848.27c-1.27,22.46,2.4,47.49,19.55,62,16.72,14.19,43.36,13.64,61,.54s25.82-36.73,22.63-58.43" transform="translate(-952.05 -310)"/><path class="cls-23" d="M3336.56,1848.27c-1.77,25.9,2.89,57.91,29.35,70,24.84,11.41,54.29.42,68-22.55,7.26-12.22,12-29.7,7.94-43.76a1.59,1.59,0,0,0-3.1.42c-.13,8.23.33,16.06-1.62,24.18a61.1,61.1,0,0,1-9.21,20.7,50.15,50.15,0,0,1-41.74,21.49c-16.73-.19-30.92-8.79-39.29-23.17-8.15-14-9.65-31.51-9.1-47.36,0-.77-1.13-.75-1.18,0Z" transform="translate(-952.05 -310)"/><path class="cls-31" d="M3456.38,1818.93v27.3a7.52,7.52,0,0,1-7.52,7.51H3332.79a7.52,7.52,0,0,1-7.52-7.51v-27.3a7.52,7.52,0,0,1,7.52-7.52h116.07A7.52,7.52,0,0,1,3456.38,1818.93Z" transform="translate(-952.05 -310)"/><path class="cls-23" d="M3357.94,1860.53c11.68,1,23.37,1.91,35.08,2.42q8.3.35,16.59.55c5.54.14,11.38.74,16.86-.17a1,1,0,0,0,0-1.93c-5.18-.86-10.65-.38-15.89-.43-5.85,0-11.7-.17-17.56-.33-11.7-.34-23.39-.8-35.08-1.48-.89-.05-.87,1.29,0,1.37Z" transform="translate(-952.05 -310)"/><path class="cls-32" d="M2924,1091.35s-5.27-1.11-4.17-7.76,4.44-5.55,6.11-8.32,3.88-7.49,10.54-7.49c0,0-1.11-8,2.21-11.1s6.11-3.32,8.32-6.1,3.61-5.82,7.22-7.21,8.32.56,8.32.56a11.84,11.84,0,0,1,4.71-6.38c3.61-2.22,6.66.83,10.26-2.78s9.71-10,15.53-10.54,7.49,2.78,7.49,2.78,3-3.61,10.27-5.83,13-3.88,16.36-1.66c0,0,3.88-4.16,7.76-4.72s5.83,2,9.43,1.39,7.49-3.88,14.15-.28c0,0,5-3,13.59-1.11s7.76,8.33,7.76,8.33,9.71-3.61,18.31,3.05,6.93,12.2,6.93,12.2,11.65-.28,18.86,6.66,6.66,11.92,6.66,11.92,6.1-1.66,10.26,3.33,8.88,19.14,8.6,23.57c0,0,4.71-1.94,6.66,2.5s4.71,16.64,2.77,24.13-3.61,6.66-3.61,6.66,2.22,10-2.22,14.7-8.59,5.54-8.59,5.54,5.54,6.38,3.88,17.48-7.77,14.14-15,18.3-16.64,9.15-27.18,9.71-33.19-7.12-33.19-7.12,9.62,21.82,11.28,26.81c0,0-6.38,7.21-12.76,5.82s-15.53-15.53-18.3-18.3-4.58-3.75-6.66-7.49-6.51-5.13-7.21-7.49-1.11-3.46-2.63-3.74-6.66-.83-7.63-1.94c0,0-1.8,4.43-4,4s-4.76-4-9.2-2.68-7.4,5.54-14.42,3.7-21.45-8-22.74-24.6c0,0-6.48-.18-8.14-1.29s-3.51-2.59-6.66-1.48-14.05,7.4-21.45-1.29c0,0-4.25,4.62-9.24,3.32s-5.73-5.54-8.88-6.65-15.71-10.91-10.35-23.67c0,0-3.51-.37-2-9.06S2916,1096.81,2924,1091.35Z" transform="translate(-952.05 -310)"/><path class="cls-33" d="M2924,1091.35s10.16-.64,11.09-5.08" transform="translate(-952.05 -310)"/><path class="cls-33" d="M2931.18,1099.4c16.45-2.59,18.24-15.36,17.56-20.9-.92-7.58-12.29-10.72-12.29-10.72" transform="translate(-952.05 -310)"/><path class="cls-33" d="M2948.74,1078.5s.56-4.62,6.1-5" transform="translate(-952.05 -310)"/><path class="cls-33" d="M2914,1118.81s5.92,1.11,9.43-1.48,8-4.62,10.91-1.11" transform="translate(-952.05 -310)"/><path class="cls-33" d="M2942.45,1145.81h0c1.48-4.81-1.1-6.11-3.14-7.4s-6.65-2.77-6.1-5.73" transform="translate(-952.05 -310)"/><path class="cls-33" d="M2978.7,1149.87c-.74-4.8,2.4-11.09,12-15.9s26.07-4.44,31.62-6.47,11.28-5.18,17.57-6.66,12-.92,19.78-4.25,15.53-9.43,17.2-12.94,3.14-5.55,7.95-5.18" transform="translate(-952.05 -310)"/><path class="cls-33" d="M3098,1102.35s8,8.14,2.41,16.09-15.35,14.61-33.1,17.75-22.93,1.85-28.1,4.44a62.33,62.33,0,0,1-16.46,5.18c-4.62.74-13.87,3.69-15,9.61s5.74,4.81,6.48,1.66" transform="translate(-952.05 -310)"/><path class="cls-33" d="M2996.63,1131.75s21.08-3.14,23.85-9.06,2-10.91,1.48-16.82-4.81-9.62-3.14-18.12,8.87-8.69,10.54-12.39.92-8.14,7.58-12.2" transform="translate(-952.05 -310)"/><path class="cls-33" d="M3022.33,1115.48s-.92,5.73,6.47,6.84,16.64-3.69,16.83-11.65c.12-5.38-2.77-11.83-1.48-16.27s3.33-10,7.95-14.79-3-13.31,8-19.41" transform="translate(-952.05 -310)"/><path class="cls-33" d="M2967.6,1058.9c4.07-4.06-5.08-15-5.08-15s10.26,14.23,16.54,17,10.73.18,11.28-3.89.74-10.72,5-14.79,3.88-10.91,3.88-10.91" transform="translate(-952.05 -310)"/><path class="cls-33" d="M3027.14,1019.52s4.62,10.17.18,16.64-17.93,15.53-20,23.3,4.63,15.9,4.63,15.9" transform="translate(-952.05 -310)"/><path class="cls-33" d="M3007.35,1059.46s-.18,10.54-4.8,19.78c-3.53,7-4.44,13.87-1.11,20.34s-1.67,17.57-12.39,13.68" transform="translate(-952.05 -310)"/><path class="cls-33" d="M2971.85,1076.28s5.18,7.21,12,8.14c0,0-2.59,7.4,1.67,13.68,0,0-9.25,8-15.72,6.29a19.29,19.29,0,0,1-10.17-7.21" transform="translate(-952.05 -310)"/><path class="cls-33" d="M2964.09,1102.17s-3.88,10.17.74,16.09,16.27,6.84,16.08,16.45" transform="translate(-952.05 -310)"/><path class="cls-33" d="M2947.63,1122.69s-1.85-3.51-8-5.36" transform="translate(-952.05 -310)"/><path class="cls-33" d="M2941.16,1117.52s-2.59-14.24,5.36-17.75" transform="translate(-952.05 -310)"/><path class="cls-33" d="M2942.82,1102.72a5,5,0,0,0-3.32-3" transform="translate(-952.05 -310)"/><path class="cls-33" d="M2983.87,1084.42s2,1.29,5.55-1.29" transform="translate(-952.05 -310)"/><path class="cls-33" d="M3029.08,1169.43c-.28-.51-2.5-3.66-1.2-11.42" transform="translate(-952.05 -310)"/><path class="cls-33" d="M3039.34,1175.11s4.44,4.72,13.13.09,4.07-7.21,6.47-10.35,15.35-5.92,17.38-10.72,1.3-10.17-1.11-13.32" transform="translate(-952.05 -310)"/><path class="cls-33" d="M3080.2,1139s-2.77,9.06,2.59,11.47c3.93,1.76,7.58.37,10.17-2.22s5.73-5.73,9.8-6.29,20.34-2.4,20.34-18.12" transform="translate(-952.05 -310)"/><path class="cls-33" d="M3125.69,1124.54s-6.29,9.62-1.48,13,13.13,3.32,20.25-.1" transform="translate(-952.05 -310)"/><path class="cls-33" d="M3155.27,1117.15c-.55,0-7.39-3.33-10.72,0s2.4,6.1,2.4,6.1" transform="translate(-952.05 -310)"/><path class="cls-33" d="M3101.47,1052.43c-1.11-5.91,3.6-14,3.6-14s-4.71,7.21-9.33,7.77" transform="translate(-952.05 -310)"/><path class="cls-33" d="M3122.55,1063.34c3.69.19,8-6.38,8-6.38s-3.05,7.31-2.68,10.63" transform="translate(-952.05 -310)"/><path class="cls-33" d="M3149.36,1083.49c-3.89,9.25-11.1,15.35-16.64,15.72-5.95.4-10-4.07-9.62-8.32.2-2.24,2.17-8.45-1.29-11.46-4.26-3.7-16.09.18-24.22-5.18s-7.22-17.94-7.22-17.94" transform="translate(-952.05 -310)"/><path class="cls-33" d="M3086.49,1054.84s-14.61,5.17-25.88-.19-11.28-9.61-11.84-13.5" transform="translate(-952.05 -310)"/><path class="cls-33" d="M3058.48,1015.91a19.45,19.45,0,0,1-.46,15.81" transform="translate(-952.05 -310)"/><path class="cls-33" d="M3079.83,1023.13s.74,9.15-.92,12.29" transform="translate(-952.05 -310)"/><path class="cls-33" d="M3087.23,1066.48c-8.5.56-11.83,11.84-11.83,11.84s4.25-13-6.47-17" transform="translate(-952.05 -310)"/><path class="cls-33" d="M3080.39,1098.84c-4.81-.37-6.1-9.43-6.1-9.43s1.11,17-3.33,20.34" transform="translate(-952.05 -310)"/><path class="cls-33" d="M3144.55,1091.82s-1.48,6.65-.19,9.24c0,0-9.43,1.29-12.57,9.06" transform="translate(-952.05 -310)"/><path class="cls-33" d="M3124.58,1095.7s-4.58,3.15-4.81,7.76c-.37,7.58,4.07,7.58,4.07,14.43" transform="translate(-952.05 -310)"/><path class="cls-34" d="M3073,1175.76a86.63,86.63,0,0,0-10.17-3.88" transform="translate(-952.05 -310)"/><path class="cls-33" d="M3080.2,1156.35s22.93.36,39.2,5.54" transform="translate(-952.05 -310)"/><path class="cls-32" d="M2766.69,1477.89c-4.3,18.38,2.75,54.7,3.43,72.61.81,21.08-103.45,9-97.83,2s16.26-71.1,16.26-71.1-26-1.76-38.83-9.78-23.28-33.72-24.09-45-19.26-6.42-27.29-9.64-4-12,13.65-27.29c7.41-6.4,10-11.54,10.78-17.18l0-.19c1-7.74-1.42-16.48.43-30.78,3.21-24.89,26.49-52.18,26.49-52.18s61.8-16.85,85.08-12.84,76.26,70.63,78.67,104.34-32.92,76.27-43.34,89.11A19.58,19.58,0,0,0,2766.69,1477.89Z" transform="translate(-952.05 -310)"/><path class="cls-9" d="M2770.13,1470a19.58,19.58,0,0,0-3.44,7.85,29.63,29.63,0,0,1-7.19-7.19c-13.07-18.1,45.77-59.84,29.17-79.46s-34.19,13.08-44.24,22.22-8-6.62-10.56-16.68-16.6-11.06-29.88-21.13-22.93,2-44-3.07-21.11-28.6-26.65-29.61c-5.27-1-10.05,26.85-10.49,29.42,1-7.74-1.42-16.48.43-30.78,3.21-24.89,26.49-52.18,26.49-52.18s61.8-16.85,85.08-12.84,76.26,70.63,78.67,104.34S2780.55,1457.2,2770.13,1470Z" transform="translate(-952.05 -310)"/><path class="cls-14" d="M1799.67,2021.39c-19.89,27.17-39.09,75.52-39.09,75.52,4.13,2.3-2.65,39.09-12.76,62.19-.59,1.36-1.19,2.66-1.8,3.92-1.75,3.54-3.41,6.7-4.93,9.31-2,3.46-3.79,5.93-5.1,6.94-8.63,6.64-164.52-82.92-193.71-113.43s-2-69.66,12.6-62.14c2.52,1.3,8.48,2.24,16.09,3.9,4.15.91,8.8,2,13.66,3.56,2.31.72,1.51,3.52,1.38,3.91l0,0c38,11.6,97,27.08,104.22,26.17,2.52-.32,7.17-7.29,12.26-.29l36.83-54.11S1819.58,1994.19,1799.67,2021.39Z" transform="translate(-952.05 -310)"/><path class="cls-10" d="M1747.82,2159.1c-.59,1.36-1.19,2.66-1.8,3.92-1.75,3.54-3.41,6.7-4.93,9.31-36.77-15.08-175.9-87.08-182.34-108.25-5.06-16.62,3.23-42.82,12.22-56.48,4.15.91,8.8,2,13.66,3.56,2.31.72,1.51,3.52,1.38,3.91l0,0s-11.43,40.14-10.12,47.66C1577.1,2069.85,1729.27,2149.42,1747.82,2159.1Z" transform="translate(-952.05 -310)"/><path class="cls-32" d="M1799.67,2021.39c-19.89,27.17-39.74,75.21-39.09,75.52-.65-.31-15.73-6.74-35.51-23.51-20.1-17-22.6-32.4-22.6-32.4l36.83-54.11S1819.58,1994.19,1799.67,2021.39Z" transform="translate(-952.05 -310)"/><path class="cls-16" d="M1746,2163c-4,8.25-7.73,14.48-10,16.25-8.63,6.64-164.52-82.92-193.71-113.43s-2-69.66,12.6-62.14c3.89,2,16,3.14,29.75,7.46,2.49.78,1.36,4,1.36,4s-17.63,45.22-14.43,50.71S1682.39,2134.76,1711,2148,1746,2163,1746,2163Z" transform="translate(-952.05 -310)"/><path class="cls-10" d="M1604.13,2043.71a4.59,4.59,0,0,0,2.39-.53,4.65,4.65,0,0,0,2-1.28,4.59,4.59,0,0,0,1.28-2,4.67,4.67,0,0,0,.54-2.39l-.22-1.64a6.18,6.18,0,0,0-1.6-2.74l-1.25-1a6.26,6.26,0,0,0-3.13-.85,6.36,6.36,0,0,0-6.2,6.2l.22,1.65a6.37,6.37,0,0,0,1.59,2.74l1.26,1a6.15,6.15,0,0,0,3.13.84Z" transform="translate(-952.05 -310)"/><path class="cls-10" d="M1629.66,2054.45a7.2,7.2,0,0,0,4.57-1.9,4.73,4.73,0,0,0,1.34-2.08,4.85,4.85,0,0,0,.56-2.49l-.23-1.73a6.46,6.46,0,0,0-1.67-2.85l-1.31-1a6.43,6.43,0,0,0-3.26-.88,4.89,4.89,0,0,0-2.5.56,6.66,6.66,0,0,0-4,5.92l.23,1.72a6.49,6.49,0,0,0,1.67,2.85l1.31,1a6.47,6.47,0,0,0,3.27.88Z" transform="translate(-952.05 -310)"/><path class="cls-10" d="M1649.29,2057.18l.12.23a6.07,6.07,0,0,0,2.18,2.18,4.53,4.53,0,0,0,2.25.72,4.63,4.63,0,0,0,2.42-.11,6.11,6.11,0,0,0,2.68-1.56l.07-.07-2.55,1.49.18,0a5.62,5.62,0,0,0,2.48-1.45,4.18,4.18,0,0,0,1.16-1.8,4.24,4.24,0,0,0,.48-2.17,5.51,5.51,0,0,0-.76-2.83l-.09-.2.79,2.92,0-.14a6.06,6.06,0,0,0-.83-3.06,4.53,4.53,0,0,0-1.57-1.71,4.6,4.6,0,0,0-2.06-1.08,6.07,6.07,0,0,0-3.22,0l-.23,0a5.94,5.94,0,0,0-2.6,1.51,6.59,6.59,0,0,0-1.73,4.17,6,6,0,0,0,.81,3Z" transform="translate(-952.05 -310)"/><path class="cls-10" d="M1681.18,2062.14a2.81,2.81,0,0,0,.71,0,8.05,8.05,0,0,0,2.39-.53,4.67,4.67,0,0,0,2-1.28,6.64,6.64,0,0,0,2.16-4.74,5.45,5.45,0,0,0-2.16-4.31,4.16,4.16,0,0,0-1.87-1,5.53,5.53,0,0,0-2.91,0,6.51,6.51,0,0,0-1.7.71l1.35-.57c-.77.31-1.56.56-2.32.93l1.38-.59a2.51,2.51,0,0,1-.55.17,5.68,5.68,0,0,0-3.4,2.61,5.89,5.89,0,0,0-.68,3.63,5.48,5.48,0,0,0,1.57,3.27l1.15.9a5.7,5.7,0,0,0,2.88.77Z" transform="translate(-952.05 -310)"/><path class="cls-16" d="M1604,2039c.62-1.36.48-2.94.57-4.4s.26-3.16.47-4.73a46.13,46.13,0,0,1,2.17-9.33,4.23,4.23,0,0,1,2.31-2.74,5.1,5.1,0,0,1,3.23-.13,6.5,6.5,0,0,1,3.06,2.16c.42.5.83,1.06,1.2,1.6a14.74,14.74,0,0,1,1,1.33c.33.64,1.17.16,1.07-.45,0-.34,0-.66,0-1a10.45,10.45,0,0,0-.32-1.09,7.13,7.13,0,0,0-1.16-2.11,8.61,8.61,0,0,0-3.46-2.78,7,7,0,0,0-8.13,1.68,13.78,13.78,0,0,0-2.16,5.09,46.68,46.68,0,0,0-1.16,5.62,39.87,39.87,0,0,0-.44,5.67c0,1.75-.17,4.09.79,5.63a.6.6,0,0,0,1,0Z" transform="translate(-952.05 -310)"/><path class="cls-16" d="M1631.23,2049.82a27.41,27.41,0,0,1-1.54-8.79c-.06-3.23-.22-6.69.81-9.8.78-2.34,2.48-4.68,5.11-5a6.6,6.6,0,0,1,6.14,2.85c.5.74,1.88.31,1.54-.65a7.74,7.74,0,0,0-6.92-5c-3.35-.19-6.24,2-7.83,4.76-2,3.46-2,7.69-1.93,11.55s.51,7.88,3,11c.6.74,1.92-.05,1.6-.93Z" transform="translate(-952.05 -310)"/><path class="cls-16" d="M1655.35,2054.28c.51-1.48,0-3.28-.07-4.81s-.18-3.12-.24-4.68c-.13-3.12-.29-6.58.54-9.63.68-2.54,2.5-4.82,5.36-4.61,3.12.23,5.18,3.14,7,5.34.43.53,1.26-.15.92-.71-1.75-2.94-4-5.89-7.42-6.88a7,7,0,0,0-7.87,3.66c-1.79,3.27-1.7,7.34-1.6,11a41.56,41.56,0,0,0,.55,6c.3,1.79.51,4.24,1.76,5.65a.65.65,0,0,0,1.07-.28Z" transform="translate(-952.05 -310)"/><path class="cls-16" d="M1681.53,2055.94c-3.83-4-5-10.35-5.08-15.73,0-1.21,0-3.22.94-4.15s2.88-.41,3.89-.15c2.93.74,4.93,2.51,6.9,4.7.4.46,1.29,0,1.06-.62-1.24-3.17-4.47-5.51-7.64-6.5-1.63-.51-3.66-1-5.31-.35s-2.75,2.69-3.07,4.48c-.64,3.69.15,7.88,1.15,11.45s2.68,6.68,5.85,8.57a1.09,1.09,0,0,0,1.31-1.7Z" transform="translate(-952.05 -310)"/><path class="cls-32" d="M1697.79,2068.57a88.17,88.17,0,0,0,18.28,18.47,117.76,117.76,0,0,0,22.11,13.59c4.42,2.07,9.08,4.23,13.89,5.12,1.24.22,2.23-1.56.92-2.19-3.82-1.84-7.89-3.18-11.77-4.92a118.82,118.82,0,0,1-11.37-5.9,127.32,127.32,0,0,1-20.48-15.06c-3.57-3.22-6.92-6.69-10.3-10.1-.64-.63-1.83.21-1.28,1Z" transform="translate(-952.05 -310)"/><path class="cls-14" d="M1998.16,2215.51c-4.25,33.4,2.33,85,2.33,85,4.73,0,16.6,35.5,18.93,60.6.15,1.47.25,2.91.32,4.3.19,3.94.26,7.52.19,10.54-.1,4-.44,7-1.1,8.54-4.34,10-184.1,7-224.42-5.54s-35.44-60-19-60.47c2.84-.08,8.5-2.15,16-4.38,4.07-1.21,8.69-2.47,13.67-3.49,2.37-.49,3,2.35,3.11,2.75v0c38.84-8.21,97.94-23.21,103.87-27.53,2-1.49,2.74-9.84,10.59-6.18l6.05-65.17S2002.42,2182.07,1998.16,2215.51Z" transform="translate(-952.05 -310)"/><path class="cls-10" d="M2019.42,2361.11c.15,1.47.25,2.91.32,4.3.19,3.94.26,7.52.19,10.54-39.47,4.59-196.07,8.91-212-6.51-12.47-12.09-17.89-39-16.63-55.34,4.07-1.21,8.69-2.47,13.67-3.49,2.37-.49,3,2.35,3.11,2.75v0s9.42,40.66,14.21,46.61C1826.83,2365.61,1998.51,2361.62,2019.42,2361.11Z" transform="translate(-952.05 -310)"/><path class="cls-32" d="M1998.16,2215.51c-4.25,33.4,1.62,85,2.33,85-.71,0-17,1.71-42.45-3.39-25.83-5.18-35.45-17.42-35.45-17.42l6.05-65.17S2002.42,2182.07,1998.16,2215.51Z" transform="translate(-952.05 -310)"/><path class="cls-16" d="M2019.74,2365.41c.45,9.18.24,16.41-.91,19.08-4.34,10-184.1,7-224.42-5.54s-35.44-60-19-60.47c4.37-.13,15.51-5,29.64-7.87,2.56-.52,3.11,2.8,3.11,2.8s6.45,48.11,11.91,51.36,130.34,6.7,161.81,4.47S2019.74,2365.41,2019.74,2365.41Z" transform="translate(-952.05 -310)"/><path class="cls-10" d="M1834.84,2330.44a6.93,6.93,0,0,0,4.38-1.82,4.61,4.61,0,0,0,1.29-2,4.73,4.73,0,0,0,.53-2.38l-.22-1.65a6.29,6.29,0,0,0-1.6-2.74l-1.25-1a6.15,6.15,0,0,0-3.13-.84,4.59,4.59,0,0,0-2.39.53,5.61,5.61,0,0,0-3.28,3.28,4.77,4.77,0,0,0-.53,2.39l.22,1.64a6.24,6.24,0,0,0,1.6,2.74l1.25,1a6.26,6.26,0,0,0,3.13.85Z" transform="translate(-952.05 -310)"/><path class="cls-10" d="M1862.24,2327.51a6.23,6.23,0,0,0,5.92-4,5,5,0,0,0,.56-2.49l-.23-1.72a6.53,6.53,0,0,0-1.67-2.86l-1.31-1a6.48,6.48,0,0,0-3.27-.89,5,5,0,0,0-2.49.56,6.66,6.66,0,0,0-4,5.92l.23,1.72a6.51,6.51,0,0,0,1.66,2.86l1.31,1a6.37,6.37,0,0,0,3.27.88Z" transform="translate(-952.05 -310)"/><path class="cls-10" d="M1883.91,2319.62l.21.13a6,6,0,0,0,6.11,0l0,0a4.59,4.59,0,0,0,1.69-1.55,3,3,0,0,0,.77-1.33,2,2,0,0,0,.32-.78l-1.49,2.56.15-.14a6.18,6.18,0,0,0,1.65-4l-.2-1.49a5.62,5.62,0,0,0-1.45-2.48l-.15-.12,1.49,2.56a4.69,4.69,0,0,0-1.09-2.09,2.94,2.94,0,0,0-1.08-1.08,2.26,2.26,0,0,0-.66-.5,6,6,0,0,0-6.11,0l-.21.15a6,6,0,0,0-2.11,2.11,5.91,5.91,0,0,0,0,5.94,6,6,0,0,0,2.11,2.12Z" transform="translate(-952.05 -310)"/><path class="cls-10" d="M1913,2309a9.62,9.62,0,0,0,1.93-.88,6.82,6.82,0,0,0,2.92-3.76,9.53,9.53,0,0,0,.31-2.13,5.23,5.23,0,0,0-.22-1.66,6,6,0,0,0-1.48-2.56l-1.1-.85a4.11,4.11,0,0,0-2-.64,5.18,5.18,0,0,0-3.46.64,7.59,7.59,0,0,0-1.26,1,12.43,12.43,0,0,0-1,1.34l.89-1.15a3.68,3.68,0,0,1-.4.39,11.78,11.78,0,0,0-1.17,1.54l.9-1.17a2.47,2.47,0,0,1-.35.37l-.89,1.15a4.19,4.19,0,0,0-.68,2.12,5.42,5.42,0,0,0,.68,3.63,6.76,6.76,0,0,0,2,2,6.3,6.3,0,0,0,4.39.57Z" transform="translate(-952.05 -310)"/><path class="cls-16" d="M1835.41,2325.62a10.86,10.86,0,0,0-1.45-3.73c-.67-1.39-1.28-2.8-1.85-4.23a52.75,52.75,0,0,1-2.61-8.61c-.27-1.28-.59-2.72,0-4a4.75,4.75,0,0,1,2.64-2.2,6,6,0,0,1,3.91.11,17.7,17.7,0,0,1,1.8.77,13.1,13.1,0,0,1,1.89.89c.59.4,1.1-.44.71-.93-.21-.26-.29-.6-.52-.88a9,9,0,0,0-1-1,7.82,7.82,0,0,0-2-1.15,8.52,8.52,0,0,0-4.75-.66,6.88,6.88,0,0,0-5.93,6.19,17.5,17.5,0,0,0,.87,5.41,42.6,42.6,0,0,0,1.73,5.3,41.76,41.76,0,0,0,2.34,5c.82,1.45,1.72,3.34,3.22,4.18a.6.6,0,0,0,.9-.51Z" transform="translate(-952.05 -310)"/><path class="cls-16" d="M1864.51,2321.88a26.62,26.62,0,0,1-5.32-6.45,34.11,34.11,0,0,1-4.13-8.66c-.67-2.63-.52-5.92,1.88-7.63a6.61,6.61,0,0,1,6.75-.48c.81.41,1.78-.65,1-1.32a7.75,7.75,0,0,0-8.48-1c-3.19,1.56-4.65,5.13-4.51,8.54.17,4,2.28,7.72,4.25,11.06,1.85,3.13,4.13,6.12,7.6,7.52.9.35,1.63-1,.94-1.61Z" transform="translate(-952.05 -310)"/><path class="cls-16" d="M1887.77,2314.1c-.24-1.46-1.48-2.72-2.25-3.94s-1.56-2.5-2.33-3.75a36.92,36.92,0,0,1-4.33-8.63c-.77-2.63-.49-5.75,2.23-7.08s6.12.18,8.81,1.25c.63.24,1-.75.46-1.08-3-1.75-6.45-3.29-10-2.38-3.24.82-5.07,4.12-4.93,7.33.18,3.82,2.32,7.4,4.25,10.6a41.34,41.34,0,0,0,3.23,4.64c1.08,1.33,2.38,3.27,4.08,3.83.5.16.85-.34.78-.79Z" transform="translate(-952.05 -310)"/><path class="cls-16" d="M1911.48,2302.91c-5.28-1.66-9.25-6.59-12-11.19-.66-1.11-1.53-2.78-1.27-4.13.22-1.11,2.07-1.72,3-2,3-.9,5.75-.32,8.64.69a.64.64,0,0,0,.62-1.06A11.47,11.47,0,0,0,1903,2283c-2.5.07-6.36.8-7.59,3.27-1.43,2.89.47,6.36,2.11,8.73a35.74,35.74,0,0,0,5.47,6.43,12.92,12.92,0,0,0,8.22,3.65,1.08,1.08,0,0,0,.29-2.12Z" transform="translate(-952.05 -310)"/><path class="cls-32" d="M1931.84,2306.1a88.1,88.1,0,0,0,24.79,7.29,117.85,117.85,0,0,0,26,1.22c4.89-.32,10.07-.69,14.73-2.26,1.22-.41,1.1-2.43-.31-2.35-4.21.23-8.39,1-12.61,1.38a117.14,117.14,0,0,1-12.71.36,127.39,127.39,0,0,1-25.27-3.26c-4.71-1.09-9.35-2.52-14-3.87-.86-.25-1.47,1.08-.62,1.49Z" transform="translate(-952.05 -310)"/><path class="cls-15" d="M2561,2122s-62.8,55.73-180.43,35.39c-116.91-20.22-309-204.67-311.32-206.94l0,0c-1.77,39.82-55.75,231.58-56.64,242.2,0,0,8-.18,10.79,3.61,2.24,3-.15,23.24-5.45,35.63s-13.18,7.56-51.08,5.32c-54.17-3.21-56.83-2-57.72-21.42s-.09-27.6,7.08-26.53c8.07,1.19-4.42-299-4.42-299-23.88,34.5-81.37,100-77.83,101.71s-15,35.38-23.88,38-35.3-10.08-60.06-26-30.16-18.23-20.43-42.1,16.8-11.5,16.8-11.5,175.13-313.11,249.42-355.57,363.3,255.7,363.3,255.7h0c5.61-2.81,12.5-3.61,19.09-3h0c7.68.77,15,3.49,19.36,7.31,3.83,3.32,40,62.32,77.38,124l0,0C2517.29,2048.69,2561,2122,2561,2122Z" transform="translate(-952.05 -310)"/><path class="cls-35" d="M2561,2122s-62.8,55.73-180.43,35.39c-116.91-20.22-309-204.67-311.32-206.94l0,0s-1.77-37.15-15.92-68.11,47.76,41.57,76.07,82.26,170.7,140.63,245,151.24,20.34-115,8.84-165.39-24.11-99.87-24.11-99.87h0a16,16,0,0,1,19.09-3h0c5.71,2.87,12.33,9.34,19.36,22.35,9.19,17,42.09,61.12,77.38,109l0,0C2517.29,2048.69,2561,2122,2561,2122Z" transform="translate(-952.05 -310)"/><path class="cls-35" d="M1911.83,1890.22s112.33-114.1,122.06-148.58c0,0,54.84,16.51,132.67,62.65s164.52,92.12,161.86,81.51-142.44-99.66-170.75-116.47-108.08-79.28-112.5-69.55S1911.83,1890.22,1911.83,1890.22Z" transform="translate(-952.05 -310)"/><path class="cls-14" d="M2800.63,1648.23c-6.43,65.82-62.62,222.34-112.39,327.49s-118,162.15-132.44,167-78.66-54.58-114.78-88.3-55.39-167-58.6-187-23.27-16.87-23.27-16.87c-2.41-11.23,16.85-4.81,37.72-9.63.25,0,.5-.12.75-.19,5.3-1.66,12.6-8.23,20.57-17.19,23.89-26.85,53.81-75.06,54.44-76.07v0s-38.37,4.71-68.93,5.58c-13.93.41-26.24,0-32.53-2-20.06-6.42-20.86-20.06-11.23-63.41s100.33-96.32,115.54-114,18.51-3.21,18.51-3.21a331.33,331.33,0,0,0,39.85-8.47c15.46-4.31,32.63-10.44,46-18.83,32.1-20.06,98.27-17,98.27-17,3.32,28.32,81.52,28.27,91.22,14.62,1.76-2.48,4.11-2.68,6.75-1C2788.07,1547.41,2805.89,1594.33,2800.63,1648.23Z" transform="translate(-952.05 -310)"/><path class="cls-36" d="M2472.64,1747.4s-38.37,4.71-68.93,5.58c11.95-2.52,49-8.43,84.63-47.43,23.67-25.89,81.81-89.89,84.66-84.66S2472.64,1747.4,2472.64,1747.4Z" transform="translate(-952.05 -310)"/><path class="cls-36" d="M2758.83,1549.16c-10.94,3.82-38.67,4.2-54.84,1.35s-29.89-6-30.76-16.69-93.46.52-76,18.71c7.75,8.09-19.51,50.14-53.43,60.4-11.54,3.49-80.17,100.7-106.32,111.17s-18.08,0-18.08,0c30-2.86,112.25-103.69,115.58-109.4s-4.76-7.13-4.76-7.13a240.25,240.25,0,0,1,3.66-45.67c15.46-4.31,32.63-10.44,46-18.83,32.1-20.06,98.27-17,98.27-17,3.32,28.32,81.52,28.27,91.22,14.62,1.76-2.48,4.11-2.68,6.75-1C2777.18,1545,2766.23,1546.58,2758.83,1549.16Z" transform="translate(-952.05 -310)"/><g class="cls-37"><path class="cls-36" d="M2701.81,1608s-37.59.51-56.92,27.9-107.93,170-116,168.34-45.62-25-53.42-22.55S2448,1783,2448,1783l9.71-12.49s16.76-.85,30.7,5.59,42.93,13.69,55.81-9.67,74.11-132.09,110.35-152.23S2720.07,1599.47,2701.81,1608Z" transform="translate(-952.05 -310)"/></g><g class="cls-37"><path class="cls-36" d="M2637.64,1863.88c-19.33,39.46-62,91-99.08,86.18s-106.32-69.27-137.73-105.51c-1.16-1.33-2.22-2.63-3.21-3.87,5.3-1.66,16.51-12.75,24.48-21.71,0,0,13.51.71,13.51,17.64s106.18,90.1,137.45,78S2689.19,1753,2689.19,1753C2704.49,1738.74,2657,1824.41,2637.64,1863.88Z" transform="translate(-952.05 -310)"/></g><path class="cls-32" d="M2475.49,1781.72c-31.15,8.16-40,52.7-40,52.7-18.58-27.61-48.77-23.24-54.24-34.19a30.13,30.13,0,0,0-1.88-3.21c-6.36-9.62-18.08-18.51-12.83-32.38,5.81-15.4,30.11-21.56,37.13-22.93,2.14-.42,5.68,1.14,9.82,3.74,9.43,5.93,22,17.25,28.67,23C2451.78,1776.62,2475.49,1781.72,2475.49,1781.72Z" transform="translate(-952.05 -310)"/><g class="cls-38"><path class="cls-9" d="M2413.53,1745.45c-25.73,16.78-34.12,51.57-34.12,51.57-6.36-9.62-18.08-18.51-12.83-32.38,5.81-15.4,30.11-21.56,37.13-22.93C2405.85,1741.29,2409.39,1742.85,2413.53,1745.45Z" transform="translate(-952.05 -310)"/></g><rect class="cls-16" x="1194.04" y="1847.81" width="479.1" height="91.5" rx="19.31"/><rect class="cls-39" x="2397.15" y="2249.32" width="37.26" height="468.37" transform="translate(3879.52 4657) rotate(180)"/><path class="cls-16" d="M2766.67,2024.83c32.68-72.14,62.62-144.41,98.61-214.66,23.82-46.49,45.06-94.55,57.69-145.64,5.55-22.46,31-125.06-28.77-130.62-11.53-1.07-21.08,8.14-25.17,12.67q-95.16,219.2-190.33,438.4c-8.58,18.93.39,41.48,20,50.38l16.85,7.63C2735.22,2051.89,2758.1,2043.76,2766.67,2024.83Z" transform="translate(-952.05 -310)"/><path class="cls-40" d="M2961.52,1632.76,2759,2094.46s-32.73,79.08-60.73,107.08a149.32,149.32,0,0,1-105.59,43.74H2224.84" transform="translate(-952.05 -310)"/><rect class="cls-18" x="1415.29" y="2099.81" width="96.89" height="182.6"/><path class="cls-39" d="M2089.6,2717.68C2133,2688.84,2253.41,2617,2422.7,2619c161.06,1.89,275.43,69.51,319.27,98.66v-30.26c-46.12-29.32-160.26-93.21-319.27-95-167.16-1.9-287.3,65.9-333.1,95Z" transform="translate(-952.05 -310)"/><path class="cls-18" d="M2700.25,2717.68A41.72,41.72,0,1,1,2742,2759.4,41.71,41.71,0,0,1,2700.25,2717.68Z" transform="translate(-952.05 -310)"/><path class="cls-18" d="M2376.39,2717.68a39.4,39.4,0,1,1,39.39,39.4A39.39,39.39,0,0,1,2376.39,2717.68Z" transform="translate(-952.05 -310)"/><path class="cls-18" d="M2050.21,2717.68a39.39,39.39,0,1,1,39.39,39.4A39.38,39.38,0,0,1,2050.21,2717.68Z" transform="translate(-952.05 -310)"/><path class="cls-9" d="M2646.49,1465.26a7,7,0,0,1-1.86,2.2S2645.29,1466.64,2646.49,1465.26Z" transform="translate(-952.05 -310)"/><path class="cls-32" d="M2578.39,1565.51s1.54,5.41-.8,9.81-8.77,4.67-8.77,4.67.37,2.78-2.56,9a10.57,10.57,0,0,1-12.25,5.65s.84,6.73-3,10.56-11.56,1.59-16.45-1c0,0-17.67,11.73-20.66,12.11s-32.22-17.11-21.59-44.83c0,0,23.57-27.08,35.43-40.32s17-15.29,27.49-9.34,38.73,23.61,37.12,29.39S2582.87,1567.13,2578.39,1565.51Z" transform="translate(-952.05 -310)"/><path class="cls-9" d="M2534.52,1604.16s-17.67,11.73-20.66,12.11-32.22-17.11-21.59-44.83c.35,9.21,2.41,28.29,12.43,31.2s9.34-17.53,13.86-12.16S2534.52,1604.16,2534.52,1604.16Z" transform="translate(-952.05 -310)"/><path class="cls-9" d="M2533.52,1578.15s14.56,9.6,20.49,16.46" transform="translate(-952.05 -310)"/><path class="cls-9" d="M2544.1,1558.32s18,12.17,24.72,21.67" transform="translate(-952.05 -310)"/><path class="cls-9" d="M2578.39,1565.51c-1.77-2.42-3.67-4.67-5.62-6.89-.5-.54-1-1.09-1.48-1.65l-1.52-1.61q-1.51-1.62-3.07-3.2c-2-2.13-4.18-4.2-6.28-6.3s-4.22-4.18-6.31-6.32a69.65,69.65,0,0,1,7.2,5.36q3.43,2.88,6.58,6.09a70.84,70.84,0,0,1,5.89,6.81A37.21,37.21,0,0,1,2578.39,1565.51Z" transform="translate(-952.05 -310)"/><g class="cls-41"><path class="cls-9" d="M2554.11,1539.54s26.32,12.6,28.65,17.79-.65,7.5-.65,7.5l-3.11,1.46Z" transform="translate(-952.05 -310)"/></g><path class="cls-9" d="M2542.23,1519.17a8.4,8.4,0,0,1,5.1-.68,19.54,19.54,0,0,1,5,1.39,40.76,40.76,0,0,1,4.66,2.37l4.46,2.62q8.9,5.3,17.36,11.31c2.79,2,5.55,4.14,8.17,6.44a42.21,42.21,0,0,1,3.74,3.71,13.14,13.14,0,0,1,1.59,2.2,5.83,5.83,0,0,1,.57,1.35,4.38,4.38,0,0,1,.1.81,3.39,3.39,0,0,1-.14.82,28,28,0,0,1-5.36,9,24.36,24.36,0,0,1-3.84,3.55,12,12,0,0,1-4.68,2.21,12.79,12.79,0,0,0,4.4-2.56,24.58,24.58,0,0,0,3.49-3.72,27.19,27.19,0,0,0,4.75-8.86c.09-.23,0-.3.06-.45a4.63,4.63,0,0,0-.08-.47,4.56,4.56,0,0,0-.48-1,12.7,12.7,0,0,0-1.48-1.93,39.34,39.34,0,0,0-3.68-3.49c-2.59-2.2-5.33-4.27-8.11-6.27-5.56-4-11.31-7.8-17.06-11.58l-4.33-2.81a39.83,39.83,0,0,0-4.44-2.52,18.68,18.68,0,0,0-4.78-1.7A8.71,8.71,0,0,0,2542.23,1519.17Z" transform="translate(-952.05 -310)"/><path class="cls-9" d="M2688.55,1481.42s17.36,1.85,29.18,0,4.8,7.76-7,12.93-25.66,6.85-25.66,6.85Z" transform="translate(-952.05 -310)"/><path d="M1751.05,1956.36a220.2,220.2,0,0,0,34.41,21.66c10.73,5.43,23.47,12.55,35.61,13.75,1.88.18,2.31-2.49.91-3.37-5.06-3.15-11.21-5-16.74-7.28q-9.51-3.86-18.7-8.46a371.38,371.38,0,0,1-33.79-19.21c-1.88-1.2-3.38,1.63-1.7,2.91Z" transform="translate(-952.05 -310)"/><path d="M1932.54,2192.71c12.68,1.69,25.37,3.35,38.06,5.07,5.8.79,11.59,1.65,17.38,2.5,5.55.82,11.52,2.62,17.09,1.49,2.23-.46,2.53-3.76.62-4.81-4.92-2.72-11.29-2.71-16.8-3.41-6.13-.78-12.28-1.46-18.42-2.1-12.63-1.31-25.24-2.18-37.93-2.59-2.55-.08-2.37,3.53,0,3.85Z" transform="translate(-952.05 -310)"/><path d="M2307.5,2058.66a163,163,0,0,1,21.65-42,157.85,157.85,0,0,1,14.92-17.92q3.87-4,8-7.66c3.2-2.82,5.82-6,8.88-8.95s-.84-7.89-4.47-5.79-7.17,3.86-10.29,6.63-6.2,5.75-9.11,8.81a143.55,143.55,0,0,0-15.6,19.5,139.1,139.1,0,0,0-19.61,45.83c-.85,3.66,4.39,5.07,5.6,1.54Z" transform="translate(-952.05 -310)"/><path class="cls-36" d="M2526.84,1804.8c8,4.7,13.57,12.31,16.67,21a60.56,60.56,0,0,1,3.17,15.16c.38,4.27-.48,9.15,1,13.17a2.09,2.09,0,0,0,4,0c1.77-4.59.38-10.83-.34-15.61a61.94,61.94,0,0,0-4.42-15.79,41,41,0,0,0-18.65-20.34,1.41,1.41,0,0,0-1.42,2.43Z" transform="translate(-952.05 -310)"/><path class="cls-36" d="M2479.88,1589.86c-.79,8.35,4.16,16.18,8.83,22.74,3.55,5,9.23,12,15.95,11.9,1.49,0,2.53-2,1.29-3.13-2.14-1.87-4.79-2.89-7-4.69a40.22,40.22,0,0,1-6.62-7c-4.21-5.57-9.39-12.59-9.43-19.77,0-2-2.83-1.9-3,0Z" transform="translate(-952.05 -310)"/><path class="cls-36" d="M2643.65,1634.46c13.21-11.25,29.25-22,47.08-23.22,8-.55,16.07.81,23,4.92a33.06,33.06,0,0,1,8.33,6.84c2.06,2.41,3,5.47,5.77,7.16,1.82,1.12,3.69-.38,3.89-2.23.74-6.74-8.93-14-14.07-17a42.9,42.9,0,0,0-25.2-5.35c-20.22,1.84-35.67,14.51-50,27.74-.78.72.37,1.83,1.16,1.16Z" transform="translate(-952.05 -310)"/><path class="cls-36" d="M2732.69,1656.75A60.41,60.41,0,0,1,2732,1678c-1.33,6.09-4.46,11.76-5.55,17.84a1.22,1.22,0,0,0,2,1.17c4.81-5,6.39-13.11,7.27-19.74a69.66,69.66,0,0,0-.5-21.23c-.3-1.71-2.82-1-2.58.72Z" transform="translate(-952.05 -310)"/><path class="cls-36" d="M2536.72,1909.21c7.85,4.9,16.69,8.2,26.07,8,6.65-.15,17.09-1.91,20.06-8.73A1.69,1.69,0,0,0,2581,1906c-3.35.68-5.83,2.66-9,3.87a32.15,32.15,0,0,1-10.74,2.15c-8.09.19-16-2.4-23.39-5.47-1.56-.65-2.44,1.8-1.11,2.63Z" transform="translate(-952.05 -310)"/><path class="cls-9" d="M2436.47,1833.92c1.57-6,2.82-11.91,5.42-17.54,2.26-4.89,5.73-9.15,7.76-14.11.53-1.3-1.29-2.64-2.41-1.85-9.08,6.48-14.06,22.35-13.66,33.11a1.48,1.48,0,0,0,2.89.39Z" transform="translate(-952.05 -310)"/><path d="M2729.92,1366.58s11.08,26.19,10,39.86,10,4.8,11.82-4.81,15.88-31.76,28.44-31-15.51-19.95-23.64-18.47S2729.92,1366.58,2729.92,1366.58Z" transform="translate(-952.05 -310)"/><path class="cls-42" d="M2843.36,1393.22a158.51,158.51,0,0,1-17.28,26.62c-25.45,32.22-59.65,54.42-62.95,50.39-4.16-5.07,17.52-24.44,28.58-47.5s-5.52-47.5-18-46.11c-9,1-32.52,10.17-51.29,3-7.23-2.74-13.74-7.91-18.45-16.88a59.39,59.39,0,0,1-14.76,3.8c-11.94,1.54-28.68.07-40.46-15.78-8.94-12-13-20.59-14.8-26.44-2.12-6.93-1-10-.82-10.42-.59.93-11,18.06-10.17,51.19a60.09,60.09,0,0,1-13.86-18.89c-7.42-15.72-10.66-40.33,13.86-70.27,43.31-52.91,83.42-34,94.5-23.86,0,0,59.69-10.6,86.79,11.08S2866.41,1347.57,2843.36,1393.22Z" transform="translate(-952.05 -310)"/><path class="cls-43" d="M2704,1362.78a59.39,59.39,0,0,1-14.76,3.8,76.05,76.05,0,0,1-4.95-15.78c-6.93-32.75,20.74-75.16,13.36-46.58S2704,1362.78,2704,1362.78Z" transform="translate(-952.05 -310)"/><path class="cls-43" d="M2633.17,1313.9l.8,10.46c-2.19-7.18-.9-10.24-.81-10.45-.33.51-11.06,17.65-10.18,51.22a60.09,60.09,0,0,1-13.86-18.89c-.83-33.28,30.89-66.45,30.89-66.45C2633.09,1292.69,2633.17,1313.9,2633.17,1313.9Z" transform="translate(-952.05 -310)"/><path class="cls-43" d="M2826.08,1419.84c-25.45,32.22-59.65,54.42-62.95,50.39-4.16-5.07,17.52-24.44,28.58-47.5s-5.52-47.5-18-46.11c-9,1-32.52,10.17-51.29,3,0,0,31.93-1.91,42.53-13.08s44.64,1.74,47.21,30.1C2813.38,1409.82,2819.68,1416.48,2826.08,1419.84Z" transform="translate(-952.05 -310)"/><path class="cls-16" d="M2644.21,1308.18a33.07,33.07,0,0,0-.64,17.46,34.66,34.66,0,0,0,3,8.23,22.69,22.69,0,0,0,2.32,3.72c.84,1.05,2.21,2.78,3.68,2.66a1.61,1.61,0,0,0,1.5-1.14c.36-1.37-.66-2.54-1.28-3.69s-1.45-2.31-2.09-3.52a33.56,33.56,0,0,1-2.86-7.25,34.36,34.36,0,0,1-.48-15.59,1.66,1.66,0,0,0-3.19-.88Z" transform="translate(-952.05 -310)"/><path class="cls-16" d="M2656.46,1323.84a25.17,25.17,0,0,0,.65,5.53,16,16,0,0,0,.86,2.5c.18.46.38.91.59,1.36a2,2,0,0,0,1.2,1.19,1.11,1.11,0,0,0,1.33-.76c.32-.82-.27-1.81-.51-2.61s-.39-1.57-.6-2.47a21.33,21.33,0,0,1-.55-4.74,1.49,1.49,0,1,0-3,0Z" transform="translate(-952.05 -310)"/><path class="cls-16" d="M2705.26,1327.23c-3.21,7.73-.78,17,2.31,24.4a61.75,61.75,0,0,0,5.73,10.77,58.43,58.43,0,0,0,3.62,4.83c1.33,1.59,2.75,3.36,4.65,4.27a2.18,2.18,0,0,0,3-3c-.86-1.78-2.4-3.2-3.64-4.71-1.09-1.32-2.12-2.67-3.08-4.08a58.8,58.8,0,0,1-5.43-9.71,62.09,62.09,0,0,1-3.46-10.39c-.89-3.68-1.38-7.81-.29-11.5.66-2.22-2.54-3-3.37-.93Z" transform="translate(-952.05 -310)"/><path class="cls-16" d="M2720.12,1346.79a19.79,19.79,0,0,0,1.47,6.57,18.05,18.05,0,0,0,1.61,3.08c.73,1.09,1.67,2.5,3,2.88a1.81,1.81,0,0,0,2.2-2.2,4.4,4.4,0,0,0-.8-1.49c-.13-.19-.29-.37-.43-.55-.36-.45.13.18-.07-.09s-.29-.39-.42-.58a20.7,20.7,0,0,1-1.51-2.56c-.11-.21-.22-.43-.32-.64l-.14-.33c.08.18,0,.09,0,0-.18-.45-.34-.9-.49-1.36s-.28-1-.39-1.47c0-.24-.1-.47-.14-.71l-.06-.35s-.06-.44,0-.16a1.76,1.76,0,0,0-1.73-1.73,1.74,1.74,0,0,0-1.73,1.73Z" transform="translate(-952.05 -310)"/><path class="cls-16" d="M2615.23,1296.91c-1.21-.1-2.18,1.26-2.75,2.18-.45.73-.87,1.47-1.25,2.24a16.62,16.62,0,0,0-1.1,2.65,8,8,0,0,0-.3,1.61,4.66,4.66,0,0,0,0,1.58,1.62,1.62,0,0,0,2.68.71,5.63,5.63,0,0,0,.82-1.27,6.38,6.38,0,0,0,.32-.57c.1-.21.17-.42.26-.63-.19.45,0,.1,0,0,.22-.51.45-1,.65-1.54.08-.21.16-.42.25-.63s-.15.34,0,.08l.15-.35c.35-.78.78-1.52,1.16-2.29.11-.22.19-.45.28-.67s-.13.29,0,0a8,8,0,0,0,.39-.91,1.76,1.76,0,0,0-1.54-2.24Z" transform="translate(-952.05 -310)"/><path class="cls-43" d="M2638.56,1374.39a6.53,6.53,0,0,0-1.35,3.19c-.18.86-.35,1.73-.52,2.59s-.27,1.76-.4,2.63a12.37,12.37,0,0,0-.33,3.31,3.42,3.42,0,0,0,.92,2.23,3.23,3.23,0,0,0,1.81.86,3,3,0,0,0,2-.37,3.76,3.76,0,0,0,1.45-1.88,11.67,11.67,0,0,0,.54-3.28c.09-.88.2-1.77.24-2.65s.08-1.77.08-2.66c0-.41-.05-.81-.09-1.22a4.55,4.55,0,0,0-.52-2.25,2.48,2.48,0,0,0-3.83-.5Z" transform="translate(-952.05 -310)"/><path class="cls-43" d="M2628.57,1360.67c2.8-1.94,5.45-4.07,8.43-5.76a50.39,50.39,0,0,1,4.53-2.27c.71-.31,1.44-.59,2.17-.88a4.57,4.57,0,0,0,2.48-1.49,1.33,1.33,0,0,0-.78-1.93,4,4,0,0,0-2.68.42c-.85.32-1.68.68-2.51,1.06a41.12,41.12,0,0,0-4.72,2.52,30.42,30.42,0,0,0-8.13,6.76c-.63.81.19,2.28,1.21,1.57Z" transform="translate(-952.05 -310)"/><path class="cls-44" d="M2648.69,1397.42c-.49,1-1,2-1.6,2.92-.28.46-.56.92-.86,1.37-.14.22-.29.45-.45.67a6.12,6.12,0,0,0-.6,1.2l.21-.5c-.08.18-.16.35-.23.53a4.11,4.11,0,0,0-.25.57,2.06,2.06,0,0,0,0,1.1,1.87,1.87,0,0,0,1.79,1.37,2.36,2.36,0,0,0,1.49-.61l.34-.3a5,5,0,0,0,.91-1.08c.37-.56.72-1.14,1-1.73a24.08,24.08,0,0,0,1.63-4.06,1.88,1.88,0,0,0-1.09-2.22,1.85,1.85,0,0,0-2.34.77Z" transform="translate(-952.05 -310)"/><path class="cls-44" d="M2657.1,1399c-.14.26-.3.51-.44.78s-.27.54-.42.8-.3.51-.47.77l-.23.34a2.43,2.43,0,0,0-.31.81l.17-.41c-.09.18-.19.35-.28.52a2.05,2.05,0,0,0-.24.94,1.93,1.93,0,0,0,0,.24,1.31,1.31,0,0,0,.54,1.08,1.37,1.37,0,0,0,1.19.25,2.1,2.1,0,0,0,1.08-.52l.39-.43-.34.27.21-.13a2.53,2.53,0,0,0,.7-.72l.24-.41c.15-.26.29-.53.42-.8s.36-.78.53-1.18a5.84,5.84,0,0,0,.27-.93,1.66,1.66,0,0,0-1-1.94,1.64,1.64,0,0,0-2.06.67Z" transform="translate(-952.05 -310)"/><path class="cls-9" d="M2638,1439.14a56.35,56.35,0,0,1,12,0,45.39,45.39,0,0,1,5.89,1c1.9.46,3.87,1.26,5.8.89a1.29,1.29,0,0,0,.57-2.13c-1.35-1.54-3.86-2-5.81-2.39a50.57,50.57,0,0,0-6.24-.85,42.89,42.89,0,0,0-12.57,1c-1.28.28-1,2.5.32,2.34Z" transform="translate(-952.05 -310)"/><path class="cls-9" d="M2774.45,1398.94c-1.57-1.19-3.95-.37-5.17,1a13.85,13.85,0,0,0-2.84,5.2c-.58,1.91-.81,4.58.71,6.14s3.87,1.45,5.7.74c3.82-1.5,5.78-5.18,6.22-9.1a17.12,17.12,0,0,0,.09-2.68,5.61,5.61,0,0,0-.7-3c-1.26-2-4.07-2.22-6.12-1.65a9.62,9.62,0,0,0-4.78,3.27,13.17,13.17,0,0,0-2.94,5,4.67,4.67,0,0,0,2.43,5.41,6.57,6.57,0,0,0,5.55-.11,9.32,9.32,0,0,0,3.9-3.54,8.73,8.73,0,0,0,1.57-5,3.62,3.62,0,0,0-1.91-3,4.3,4.3,0,0,0-3.53-.07,8.83,8.83,0,0,0-4.22,3.65c-1.07,1.73-1.79,4.3-1.07,6.29a3.92,3.92,0,0,0,3.46,2.53,4.7,4.7,0,0,0,3.35-1.18,7.38,7.38,0,0,0,1.95-2.58c.66-1.37,1.27-3,.48-4.5-1.57-2.89-6.65-1.69-6.19,1.76a1.7,1.7,0,0,0,1.66,1.67h.51a2.56,2.56,0,0,0,1.21-.34c.12-.06.4-.09.14-.08a2.81,2.81,0,0,1-.6.08,1.19,1.19,0,0,1-.6-.25,3,3,0,0,1-.63-1.33c0-.19,0-.16,0,.09l-.06.21s-.24.65-.11.32-.07.15-.1.21a7,7,0,0,1-.44.75c0,.06-.32.38-.1.15s-.07.06-.13.12-.43.3,0,0c-.09.05-.52.2-.21.13l.11,0c-.21,0-.21.06,0,0l.15,0c-.21,0-.22,0,0,0,.4.26-.23-.27.14,0,0,0,.52.39.31.19s.25.36.25.36,0,.52,0,0v-.37c0-.07,0-.6,0-.23s0-.06,0-.15,0-.24.08-.36c.07-.27.16-.53.25-.79-.17.49.08-.12.16-.27s.29-.47.45-.7-.37.37,0,0l.26-.27a6.39,6.39,0,0,1,.54-.5c-.37.33.15-.08.28-.17l.33-.18c.47-.26-.41.09.13,0,.12,0,.43-.06-.08,0,.19,0,.33.09-.09,0a1.11,1.11,0,0,1-.7-.67c0-.11,0-.48,0-.08s0,0,0-.06c-.08.3-.15.6-.25.89s-.33.77-.1.31c-.11.22-.21.45-.33.66s-.25.43-.38.63-.15.2-.21.31c.27-.43,0,0-.1.11s-.33.35-.51.52-.64.47-.23.21c-.21.13-.4.27-.61.38l-.32.17c.47-.25,0,0-.13,0a1.94,1.94,0,0,1-.65.16c.38.07.3,0,.11,0h-.33c-.46,0,.09,0,.1,0s-.29-.07-.39-.09-.42-.13-.11,0-.08-.06-.15-.1c-.33-.17,0,0,.09.08-.35-.29.07.12,0,.11s-.14-.22-.16-.27c.29.54,0-.22,0,.11s0-.36,0,0,0-.12,0-.2.09-.27.13-.4-.12.19.07-.15c.3-.53.61-1,.95-1.54.16-.23.33-.46.48-.69s-.19.23,0-.05l.4-.48c.19-.21.38-.41.58-.6l.31-.29s.37-.3.17-.15.15-.1.19-.13l.43-.26.36-.18c-.28.14,0,0,.13,0s.51-.13.78-.2-.33,0,0,0h.49c.12,0,.39.08,0,0l.38.1c.17,0,.27.17,0,0,.27.19,0,0-.07-.11s-.14-.42-.12-.18.06.55,0,.07c0,.28,0,.57.05.86a16.86,16.86,0,0,1-.05,2c0,.15,0,.3,0,.44,0-.09.06-.37,0,.08q-.08.43-.18.87a6.32,6.32,0,0,1-.24.85c0,.15-.09.28-.14.42-.23.62.17-.29-.14.3-.11.22-.23.44-.36.65l-.21.31c0,.07-.25.32,0,0-.16.19-.32.38-.5.56l-.27.26s-.51.41-.14.14a7.94,7.94,0,0,1-.78.5l-.33.16c.27-.13.08,0-.09,0a7.37,7.37,0,0,1-.81.2c.41-.09.12,0,0,0a5.23,5.23,0,0,1-.56,0c.43,0,.1,0,0,0q.28.13.09,0c-.13-.08-.1-.06.07,0,0,0,.21.23.15.23a2.28,2.28,0,0,1-.13-.5c-.08-.35,0,.47,0-.2,0-.19,0-.37,0-.55s0-.3,0-.44.06-.49,0-.24a14,14,0,0,1,1.34-3.82c.41-.86.93-2,2.05-1.6a1.2,1.2,0,0,0,1.43-.7,1.24,1.24,0,0,0-.5-1.51Z" transform="translate(-952.05 -310)"/><path class="cls-16" d="M2866.17,1279.76c15,4.84,30.78,2.29,44.48-5.2a65.17,65.17,0,0,0,17.61-14c4.25-4.84,11.7-13.7,8.32-20.45a3.94,3.94,0,0,0-4.43-1.8c-5.63,1.74-8.61,10.53-12.27,14.84a56.28,56.28,0,0,1-14.59,12.25,64.27,64.27,0,0,1-38.27,8.13c-3.71-.36-4.11,5.19-.85,6.25Z" transform="translate(-952.05 -310)"/><path class="cls-9" d="M2021.83,2420.24v.57H1732.06v-.57a29.86,29.86,0,0,1,29.77-29.77h230.24A29.85,29.85,0,0,1,2021.83,2420.24Z" transform="translate(-952.05 -310)"/><path class="cls-45" d="M1694.09,1574a12.84,12.84,0,0,0-1.35.26c-10.57,2.67-5.62,13.51.5,17.6,6.44,4.32,14.8,6,22.34,7.15,18.9,3,39.92,0,58.38-4.55,2.53-.62,5.15-1.38,7-3.17,11.92-11.25-18.6-13.25-23.78-13.27-18.38-.07-36.93-.64-55.11-3.5A28.65,28.65,0,0,0,1694.09,1574Z" transform="translate(-952.05 -310)"/><path class="cls-16" d="M1804,1520.74c-6.4-13.76-21.12-12.44-24.13-11.69a4,4,0,0,1-3.39-.4l.18-8.46a4.26,4.26,0,0,0-3.49-4.23,3.36,3.36,0,0,0-.47-.1c-17-2.27-67.14-1.51-72.42-.95s-4.52,3-4.52,3,.38,38.15.66,62.5c.12,9.92.22,17.55.28,19.35.19,6.22,18.1,10,37.72,10.56s34.7-4.53,37.72-6a5,5,0,0,0,2.82-4.53l.23-10.7a4.47,4.47,0,0,1,1.85-.06c3.39,1.14,13,5.48,22.82-4S1810.38,1534.51,1804,1520.74Zm-4.44,34.54c-2.67,4.74-6.4,7.9-10.27,8.47-.43.06-.83.09-1.23.12h-.24a11.34,11.34,0,0,1-1.17,0h0a9.89,9.89,0,0,1-8.37-6.23,1.77,1.77,0,0,1,0-.29,11.35,11.35,0,0,0-1.71-4.34c-.57-5.47.76-28.48.76-28.48,1.24-7.36,5.09-11.12,12.06-10.18a7.68,7.68,0,0,1,1.16.23l.35.1a8.09,8.09,0,0,1,.83.28l.35.13c.36.15.71.32,1,.5.14.07.27.17.41.24l.64.4.52.36.47.39a16,16,0,0,1,1.25,1.11l.09.1c.23.23.45.48.67.73l.19.21a24.65,24.65,0,0,1,4.33,8.09,38.61,38.61,0,0,1,1.84,10.13A33.29,33.29,0,0,1,1799.52,1555.28Z" transform="translate(-952.05 -310)"/><g class="cls-46"><path class="cls-2" d="M1804,1520.74c-6.4-13.76-21.12-12.44-24.13-11.69a4,4,0,0,1-3.39-.4l.18-8.46a4.26,4.26,0,0,0-3.49-4.23,128.11,128.11,0,0,1-11.09,53.81c-12.16,27.8-45.65,19-65.66,10.66.12,9.92.22,17.55.28,19.35.19,6.22,18.1,10,37.72,10.56s34.7-4.53,37.72-6a5,5,0,0,0,2.82-4.53l.23-10.7a4.47,4.47,0,0,1,1.85-.06c3.39,1.14,13,5.48,22.82-4S1810.38,1534.51,1804,1520.74Zm-4.44,34.54c-2.67,4.74-6.4,7.9-10.27,8.47-.43.06-.83.09-1.23.12h-.24a11.34,11.34,0,0,1-1.17,0h0a9.89,9.89,0,0,1-8.37-6.23,1.77,1.77,0,0,1,0-.29,11.35,11.35,0,0,0-1.71-4.34c-.57-5.47.76-28.48.76-28.48,1.24-7.36,5.09-11.12,12.06-10.18a7.68,7.68,0,0,1,1.16.23l.35.1a8.09,8.09,0,0,1,.83.28l.35.13c.36.15.71.32,1,.5.14.07.27.17.41.24l.64.4.52.36.47.39a16,16,0,0,1,1.25,1.11l.09.1c.23.23.45.48.67.73l.19.21a24.65,24.65,0,0,1,4.33,8.09,38.61,38.61,0,0,1,1.84,10.13A33.29,33.29,0,0,1,1799.52,1555.28Z" transform="translate(-952.05 -310)"/></g><path class="cls-16" d="M1751.38,1477.2c3.58-30.45-13.53-58.38-35.76-77.71-23.44-20.4-52.13-33.94-78.62-49.82-53.38-32-104-70.22-135.23-125.28-18.57-32.71-31-68.33-48.36-101.65-3.07-5.92-11.83-.71-8.9,5.2,14.54,29.37,26.39,60.07,41.78,89a275.63,275.63,0,0,0,55.8,73.27c22,20.42,46.84,37.85,72.29,53.69,26.22,16.31,54.2,29.83,79.95,46.86,29.12,19.26,57,48.88,54.05,86.43-.16,2,2.77,1.88,3,0Z" transform="translate(-952.05 -310)"/><path class="cls-16" d="M1728.35,1470.63c-25.71-55.09-88.29-72.87-137.44-100.37a234.17,234.17,0,0,1-21.73-13.65c-7.36-5.25-13.85-11.49-21-17-2.85-2.21-8.27.75-5.6,4.31,8.7,11.6,21.82,20.2,34.07,27.68a393.65,393.65,0,0,0,40.72,21.16c26.66,12.28,54.11,24.12,77,42.94,12.41,10.22,23.77,22.19,31.4,36.45.93,1.73,3.4.21,2.6-1.51Z" transform="translate(-952.05 -310)"/></svg>